<?xml version="1.0" standalone="no"?>
<!DOCTYPE svg PUBLIC "-//W3C//DTD SVG 1.1//EN" "http://www.w3.org/Graphics/SVG/1.1/DTD/svg11.dtd" >
<svg>
<metadata>
Created by FontForge 20120731 at Sat Jul 20 17:28:51 2019
 By www
Copyright 2013 Google Inc. All Rights Reserved.
</metadata>
<defs>
<font id="NotoEmoji" horiz-adv-x="2600" >
  <font-face 
    font-family="Noto Emoji"
    font-weight="400"
    font-stretch="normal"
    units-per-em="2048"
    panose-1="2 11 5 9 4 5 4 2 2 4"
    ascent="1638"
    descent="-410"
    bbox="-48 -650 2681 2185"
    underline-thickness="102"
    underline-position="-103"
    unicode-range="U+000D-FE4EE"
  />
<missing-glyph 
d="M723 1733h1153v-2002h-1153v2002zM866 -127h867v1718h-867v-1718z" />
    <glyph glyph-name=".notdef" 
d="M723 1733h1153v-2002h-1153v2002zM866 -127h867v1718h-867v-1718z" />
    <glyph glyph-name="uni0000" 
 />
    <glyph glyph-name="uni000D" unicode="&#xd;" 
 />
    <glyph glyph-name="space" unicode=" " 
 />
    <glyph glyph-name="numbersign" unicode="#" 
d="M1740 953l-86 -449h383v-188h-420l-113 -586h-201l115 586h-399l-112 -586h-197l107 586h-354v188h391l89 449h-376v188h410l112 591h202l-113 -591h402l115 591h197l-115 -591h359v-188h-396zM1055 504h399l87 449h-398z" />
    <glyph glyph-name="zero" unicode="0" 
d="M1940 734q0 -526 -159.5 -778.5t-483.5 -252.5q-314 0 -475.5 264t-161.5 767q0 522 156.5 776t480.5 254q318 0 480.5 -265t162.5 -765zM914 734q0 -431 91 -625t292 -194q203 0 297 194.5t94 624.5q0 431 -94.5 624t-296.5 193q-200 0 -291.5 -191t-91.5 -626z" />
    <glyph glyph-name="one" unicode="1" 
d="M1665 -269h-242v1250l4 260l7 235q-20 -21 -35.5 -37t-129.5 -118l-203 -166l-132 169l525 409h206v-2002z" />
    <glyph glyph-name="two" unicode="2" 
d="M1925 -273h-1250v213l480 522q216 233 291 338.5t111 202.5t36 210q0 155 -86.5 244.5t-236.5 89.5q-130 0 -235 -52.5t-199 -134.5l-140 163q264 235 577 235q265 0 418.5 -144t153.5 -391q0 -127 -44.5 -246.5t-133 -246t-301.5 -355.5l-385 -410v-11h944v-227z" />
    <glyph glyph-name="three" unicode="3" 
d="M1871 1265q0 -192 -113 -318t-320 -162v-8q243 -30 369 -154t126 -323q0 -281 -190.5 -439t-545.5 -158q-323 0 -530 108v233q119 -63 258 -97t267 -34q238 0 361.5 98.5t123.5 296.5q0 174 -131.5 264t-390.5 90h-182v207h182q216 0 338 102.5t122 276.5q0 141 -93 222
t-249 81q-147 0 -258.5 -46t-213.5 -120l-126 172q122 98 276.5 151.5t321.5 53.5q280 0 439 -134t159 -363z" />
    <glyph glyph-name="four" unicode="4" 
d="M2029 179h-292v-449h-241v449h-925v218l908 1347h258v-1337h292v-228zM1496 407v488q0 83 3 199.5t15 391.5h-13q-19 -56 -55.5 -128.5t-67.5 -117.5l-563 -833h681z" />
    <glyph glyph-name="five" unicode="5" 
d="M1262 963q191 0 338 -71.5t225.5 -204t78.5 -310.5q0 -323 -189.5 -496.5t-532.5 -173.5q-138 0 -268 27t-219 81v236q83 -59 225 -95.5t269 -36.5q228 0 343.5 110.5t115.5 319.5q0 196 -120.5 299.5t-350.5 103.5q-114 0 -317 -35l-123 78l75 942h946v-227h-729
l-54 -574q148 27 287 27z" />
    <glyph glyph-name="six" unicode="6" 
d="M669 587q0 598 219 886.5t656 288.5q67 0 135 -8t101 -18v-212q-99 33 -228 33q-199 0 -334.5 -81.5t-208 -252t-86.5 -472.5h17q66 119 175 176t245 57q268 0 419 -162.5t151 -445.5q0 -312 -163 -492.5t-445 -180.5q-197 0 -344.5 103t-228 303.5t-80.5 477.5z
M1319 -87q173 0 271.5 117.5t98.5 345.5q0 200 -94 306t-267 106q-112 0 -206.5 -50t-149 -136t-54.5 -178q0 -137 51 -256.5t142 -187t208 -67.5z" />
    <glyph glyph-name="seven" unicode="7" 
d="M918 -269l771 1775h-1033v227h1288v-198l-760 -1804h-266z" />
    <glyph glyph-name="eight" unicode="8" 
d="M1300 1764q166 0 295 -59t199 -167.5t70 -255.5q0 -156 -84 -275.5t-275 -216.5q222 -117 323 -248.5t101 -289.5q0 -162 -78 -288t-221 -193.5t-330 -67.5q-297 0 -463 141.5t-166 396.5q0 171 95 307.5t293 230.5q-174 112 -248 235.5t-74 270.5q0 144 71.5 253
t201 167.5t290.5 58.5zM916 238q0 -159 98 -244t281 -85q184 0 287 88.5t103 251.5q0 131 -96.5 229.5t-324.5 204.5q-172 -82 -260 -188t-88 -257zM1297 1556q-145 0 -230.5 -72.5t-85.5 -210.5q0 -86 31 -150t90.5 -114t200.5 -117q176 81 247 172.5t71 208.5
q0 138 -86.5 210.5t-237.5 72.5z" />
    <glyph glyph-name="nine" unicode="9" 
d="M1932 878q0 -593 -217.5 -884t-658.5 -291q-65 0 -136.5 8.5t-99.5 16.5v213q96 -34 228 -34q209 0 343.5 88t203.5 256t82 462h-18q-62 -115 -169 -174t-252 -59q-268 0 -419 163t-151 445q0 203 75 358t213 235.5t322 80.5q198 0 345 -103.5t228 -304t81 -476.5z
M1281 1551q-176 0 -273 -119.5t-97 -343.5q0 -199 94 -305.5t268 -106.5q113 0 207 50.5t148 136t54 177.5q0 139 -51 258.5t-141.5 186t-208.5 66.5z" />
    <glyph glyph-name="uni00A0" unicode="&#xa0;" 
 />
    <glyph glyph-name="copyright" unicode="&#xa9;" 
d="M1300 1783q272 0 512 -134.5t384.5 -377t144.5 -530.5q0 -281 -139.5 -521.5t-380 -380t-521.5 -139.5q-287 0 -530 144.5t-377.5 384.5t-134.5 512q0 279 140 521t382 381.5t520 139.5zM1300 -200q254 0 470.5 126t343.5 343t127 472t-126.5 472t-343.5 343.5
t-471 126.5q-253 0 -471 -126t-344.5 -344t-126.5 -472q0 -255 127 -472t344.5 -343t470.5 -126zM1800 268q0 -16 -81 -68t-175 -77.5t-200 -25.5q-187 0 -339 82t-238 230.5t-86 331.5q0 182 85 331t238.5 231t339.5 82q268 0 434 -132q6 -5 6 -11l-2 -7l-148 -270
q-3 -6 -9 -6h-6l-6 2q-50 39 -121.5 61.5t-146.5 22.5q-137 0 -226 -83.5t-89 -220.5q0 -134 88.5 -219t226.5 -85q72 0 158 30t141 74q3 3 11 3q6 0 10 -7l134 -263z" />
    <glyph glyph-name="registered" unicode="&#xae;" 
d="M1300 1786q277 0 517.5 -138t382 -379.5t141.5 -525.5q0 -283 -141.5 -525t-382 -380t-517.5 -138q-283 0 -526 143.5t-379.5 384t-136.5 515.5t136.5 515.5t379.5 384t526 143.5zM1300 -200q252 0 470.5 127t344.5 345t126 471t-126.5 471t-344.5 345t-470 127
q-250 0 -469 -126t-346 -344.5t-127 -472.5t127 -472.5t346.5 -344.5t468.5 -126zM1854 154q0 -11 -8.5 -19.5t-19.5 -8.5h-259q-15 0 -23 11l-297 396h-103v-379q0 -11 -7.5 -18.5t-18.5 -7.5h-259q-11 0 -18.5 7.5t-7.5 18.5v1193q0 11 7.5 19.5t18.5 8.5h529
q114 0 212.5 -56.5t156 -154.5t57.5 -210q0 -126 -70.5 -232t-192.5 -157l297 -395q6 -6 6 -16zM1362 781q66 0 113 51.5t47 121.5q0 76 -46 125t-121 49h-206q-6 0 -6 -7v-334l1 -4l14 -2h204z" />
    <glyph glyph-name="uni2000" unicode="&#x2000;" 
 />
    <glyph glyph-name="uni2001" unicode="&#x2001;" 
 />
    <glyph glyph-name="uni2002" unicode="&#x2002;" 
 />
    <glyph glyph-name="uni2003" unicode="&#x2003;" 
 />
    <glyph glyph-name="uni2004" unicode="&#x2004;" 
 />
    <glyph glyph-name="uni2005" unicode="&#x2005;" 
 />
    <glyph glyph-name="uni2006" unicode="&#x2006;" 
 />
    <glyph glyph-name="uni2007" unicode="&#x2007;" 
 />
    <glyph glyph-name="uni2008" unicode="&#x2008;" 
 />
    <glyph glyph-name="uni2009" unicode="&#x2009;" 
 />
    <glyph glyph-name="uni200A" unicode="&#x200a;" 
 />
    <glyph glyph-name="uni200B" unicode="&#x200b;" 
 />
    <glyph glyph-name="exclamdbl" unicode="&#x203c;" 
d="M819 486q-16 0 -16 14l-70 992q0 15 18 15h390q18 0 18 -15l-68 -992q-4 -14 -18 -14h-254zM741 -35q0 100 54.5 149t152.5 49q94 0 148.5 -51t54.5 -147q0 -95 -54 -147t-149 -52q-99 0 -153 52t-54 147zM1526 486q-6 0 -11 4t-5 10l-70 992q0 15 18 15h390q18 0 18 -15
l-69 -992q-2 -14 -17 -14h-254zM1448 -35q0 100 54.5 149t152.5 49q94 0 148.5 -51t54.5 -147q0 -95 -54 -147t-149 -52q-99 0 -153 52t-54 147z" />
    <glyph glyph-name="uni2049" unicode="&#x2049;" 
d="M1368 362v85q0 115 48.5 199t161.5 172q90 70 120.5 105t44 73.5t13.5 89.5q0 71 -47.5 111.5t-134.5 40.5q-139 0 -366 -116l-119 258q270 146 489 146q240 0 377.5 -113.5t137.5 -311.5q0 -85 -23.5 -152t-71.5 -127t-162 -152q-107 -86 -133 -126.5t-26 -112.5v-69
h-309zM1330 -38q0 198 206 198q96 0 150 -51t54 -147q0 -94 -54 -146.5t-150 -52.5q-97 0 -151.5 51.5t-54.5 147.5zM593 484q-18 0 -18 13l-68 992q0 17 16 17h392q8 0 13 -5.5t5 -11.5l-70 -992q0 -13 -18 -13h-252zM515 -38q0 198 205 198q98 0 151.5 -52t53.5 -146
t-55.5 -146.5t-149.5 -52.5q-97 0 -151 52t-54 147z" />
    <glyph glyph-name="uni20E3" unicode="&#x20e3;" 
d="M2222 1780q46 0 79 -33t33 -79v-1845q0 -45 -33 -78t-79 -33h-1845q-45 0 -78 33t-33 78v1845q0 46 33 79t78 33h1845zM563 16q0 -7 7 -7h1459q8 0 8 7v1459q0 7 -8 7h-1459q-7 0 -7 -7v-1459zM2232 1700l-10 1h-1845q-14 0 -23.5 -9.5t-9.5 -23.5v-1845q0 -13 9 -24
l154 155q-25 30 -25 62v1459q0 36 25.5 62t62.5 26h1459q29 0 51 -17z" />
    <glyph glyph-name="trademark" unicode="&#x2122;" 
d="M1177 1636q11 0 18 -7t7 -18v-219q0 -11 -7 -18.5t-18 -7.5h-352v-985q0 -11 -8 -18t-18 -7h-225q-11 0 -18 7t-7 18v985h-352q-10 0 -18 7.5t-8 18.5v219q0 11 8 18t18 7h980zM2428 389q0 -11 -7 -20t-19 -9h-215q-10 0 -17.5 7t-8.5 18l-42 508l-163 -514
q-6 -19 -22 -19h-161q-20 0 -26 19l-162 514l-42 -508q0 -11 -8 -18t-18 -7h-214q-26 0 -26 29l86 1217q5 24 26 24h229q21 0 26 -19l208 -808l209 808q5 19 26 19h228q24 0 26 -24z" />
    <glyph glyph-name="uni2139" unicode="&#x2139;" 
d="M1300 1361q123 0 123 -111q0 -53 -31 -82t-92 -29q-123 0 -123 111t123 111zM1186 1036h228v-831h-228v831zM1300 1884q299 0 555.5 -148.5t406 -405t149.5 -557.5t-149 -557.5t-405.5 -405.5t-556.5 -149q-301 0 -557.5 149t-405.5 405.5t-149 557.5q0 299 148.5 555.5
t405 406t558.5 149.5zM1300 -179q254 0 473.5 126t348.5 347.5t129 478.5q0 258 -130 479t-349.5 346.5t-471.5 125.5q-255 0 -475.5 -127t-348.5 -347.5t-128 -476.5q0 -255 127.5 -476t348.5 -348.5t476 -127.5z" />
    <glyph glyph-name="arrowboth" unicode="&#x2194;" 
d="M1693 974v402l877 -643l-877 -644v402h-787v-402l-877 644l877 643v-402h787z" />
    <glyph glyph-name="arrowupdn" unicode="&#x2195;" 
d="M1541 371h402l-643 -877l-644 877h402v787h-402l644 877l643 -877h-402v-787z" />
    <glyph glyph-name="uni2196" unicode="&#x2196;" 
d="M615 1444l1074 -166l-284 -284l580 -578l-340 -340l-578 580l-286 -288z" />
    <glyph glyph-name="uni2197" unicode="&#x2197;" 
d="M1984 1446l-166 -1074l-284 284l-578 -580l-340 340l580 578l-288 286z" />
    <glyph glyph-name="uni2198" unicode="&#x2198;" 
d="M1985 76l-1074 166l284 284l-580 578l340 340l578 -580l286 288z" />
    <glyph glyph-name="uni2199" unicode="&#x2199;" 
d="M616 75l166 1074l284 -284l578 580l340 -340l-580 -578l288 -286z" />
    <glyph glyph-name="uni21A9" unicode="&#x21a9;" 
d="M1214 350q300 0 471 46t249.5 145.5t78.5 273.5t-79 273t-249.5 145t-470.5 46h-787v330h787q580 0 854.5 -196t274.5 -598t-275 -598.5t-854 -196.5h-349v-279l-609 445l609 447v-283h349z" />
    <glyph glyph-name="uni21AA" unicode="&#x21aa;" 
d="M1734 350v283l609 -447l-609 -445v279h-349q-578 0 -853.5 196.5t-275.5 598.5t274.5 598t854.5 196h787v-330h-787q-299 0 -470 -46t-250 -145t-79 -273t79 -273.5t250.5 -145.5t469.5 -46h349z" />
    <glyph glyph-name="uni231A" unicode="&#x231a;" 
d="M2177 907v-302h-125q-29 -161 -120 -299.5t-226 -229.5v-353h-924v353q-166 111 -263 291.5t-97 388.5q0 203 94.5 382t265.5 296v355h924v-353q137 -94 227 -232.5t119 -296.5h125zM1987 756q0 201 -101.5 373.5t-273 271t-368.5 98.5q-192 0 -363.5 -96.5
t-275.5 -269.5t-104 -377q0 -197 98 -368t270 -273t375 -102q199 0 372.5 100.5t272 273t98.5 369.5zM1797 1142l61 -105l-488 -280q0 -53 -37 -90t-89 -37q-50 0 -88 36.5t-38 92.5l-286 166l60 104l288 -166q32 18 64 18q34 0 66 -18zM1244 708q20 0 34 14t14 34
q0 16 -13 31.5t-35 15.5q-20 0 -34 -15t-14 -32q0 -20 14 -34t34 -14zM1839 756q0 19 14.5 33t33.5 14q20 0 33 -13.5t13 -33.5t-13 -34t-33 -14q-19 0 -33.5 14t-14.5 34zM1566 1264q-17 0 -32.5 13t-15.5 34q0 20 14.5 34t33.5 14q20 0 33.5 -14.5t13.5 -32.5
q0 -20 -14 -34t-33 -14zM970 1311q0 -19 -14 -33t-34 -14q-19 0 -33 14t-14 34q0 18 13.5 32.5t33.5 14.5q19 0 33.5 -13t14.5 -35zM1244 1351q-20 0 -34 13t-14 33q0 21 14 34.5t34 13.5t34 -13.5t14 -34.5q0 -20 -14 -33t-34 -13zM688 1125q17 0 31.5 -14t14.5 -34
q0 -22 -14.5 -35t-31.5 -13q-22 0 -35 15.5t-13 32.5q0 21 15.5 34.5t32.5 13.5zM601 803q20 0 34 -13.5t14 -33.5t-14 -34t-34 -14t-33 14t-13 34t13 33.5t33 13.5zM640 434q0 19 13.5 33.5t34.5 14.5q17 0 31.5 -13t14.5 -35q0 -17 -12 -32.5t-34 -15.5q-19 0 -33.5 13
t-14.5 35zM922 246q17 0 32.5 -13t15.5 -33t-14 -34t-33 -14q-20 0 -34 14t-14 32q0 20 14 34t33 14zM1244 160q20 0 34 -13.5t14 -33.5t-14 -33.5t-34 -13.5t-34 13.5t-14 33.5t14 33.5t34 13.5zM1518 198q0 19 14 33.5t34 14.5q19 0 33 -14t14 -34q0 -18 -14 -32t-34 -14
q-18 0 -32.5 12.5t-14.5 33.5zM1800 482q19 0 33.5 -14t14.5 -34q0 -22 -15.5 -35t-32.5 -13q-22 0 -35 15.5t-13 32.5q0 22 15.5 35t32.5 13z" />
    <glyph glyph-name="uni231B" unicode="&#x231b;" 
d="M2092 -172q0 -52 -36.5 -88t-88.5 -36h-1335q-53 0 -89 37t-36 87q0 44 27 77t69 44q6 272 92 445t266 264q97 49 127.5 76t30.5 64q0 34 -25 61.5t-107 65.5q-195 90 -287.5 270t-96.5 465q-42 11 -69 44t-27 77q0 52 37.5 88t87.5 36h1335q50 0 87.5 -35t37.5 -89
q0 -45 -27.5 -78.5t-69.5 -42.5q-6 -277 -90 -451.5t-267 -269.5q-105 -54 -132.5 -80t-27.5 -61t25 -62t105 -63q104 -48 193 -136.5t138.5 -236.5t55.5 -351q42 -9 69.5 -42.5t27.5 -78.5zM681 -48h1234q-4 181 -45 312.5t-114.5 208t-184.5 129.5q-97 46 -134.5 92.5
t-37.5 103.5q0 56 36 102.5t136 94.5q114 55 187 132.5t113.5 208.5t45.5 316h-1236q2 -123 20 -215t45.5 -160.5t66.5 -118.5t85 -87t138 -82q91 -47 126 -89t35 -102q0 -93 -91 -152l-70 -39q-107 -57 -152 -95t-81 -88t-62.5 -119.5t-42 -157.5t-17.5 -195zM1521 541
q49 -25 100 -56.5t95 -87t75.5 -145t42.5 -230.5h-1072q7 94 24 164.5t41.5 122.5t54 88.5t62 63t66.5 45t66 35.5h445z" />
    <glyph glyph-name="uni23E9" unicode="&#x23e9;" 
d="M236 1365l1012 -585v585l1115 -645l-1115 -644v584l-1012 -584v1289z" />
    <glyph glyph-name="uni23EA" unicode="&#x23ea;" 
d="M2363 76l-1012 584v-584l-1115 644l1115 645v-585l1012 585v-1289z" />
    <glyph glyph-name="uni23EB" unicode="&#x23eb;" 
d="M655 -343l585 1012h-585l645 1115l644 -1115h-584l584 -1012h-1289z" />
    <glyph glyph-name="uni23EC" unicode="&#x23ec;" 
d="M1944 1784l-584 -1012h584l-644 -1115l-645 1115h585l-585 1012h1289z" />
    <glyph glyph-name="uni23F0" unicode="&#x23f0;" 
d="M1355 1533q222 -13 412.5 -131.5t302.5 -317.5t112 -431q0 -278 -161 -509l53 -259q3 -7 3 -37q0 -62 -33 -94.5t-96 -32.5l-659 5l-657 -5q-62 0 -96.5 33t-34.5 94q0 22 5 37l58 281q-146 221 -146 487q0 228 109.5 426t300 319t416.5 135v125h-75v125h263v-125h-77
v-125zM2065 653q0 205 -103 382t-281.5 279.5t-380.5 102.5q-204 0 -381.5 -102t-280 -279.5t-102.5 -382.5q0 -208 104 -385t279.5 -278.5t380.5 -101.5q208 0 385.5 105t278.5 283t101 377zM1359 764q32 -15 49.5 -46t17.5 -65q0 -54 -34.5 -89.5t-96.5 -35.5l-140 -244
l-106 60l143 246q-18 32 -18 64q0 34 18 62.5t47 45.5v541h120v-539zM1300 605q19 0 33 14t14 34q0 18 -15 33t-32 15q-20 0 -34 -14t-14 -34q0 -19 14 -33.5t34 -14.5zM1943 701q17 0 31.5 -14t14.5 -34q0 -18 -13 -33t-33 -15q-21 0 -34.5 14t-13.5 34t13.5 34t34.5 14z
M1622 1255q19 0 32 -13.5t13 -34.5q0 -20 -14.5 -33t-31.5 -13q-22 0 -35 15.5t-13 32.5q0 23 16 34.5t33 11.5zM977 1255q19 0 34 -12t15 -34q0 -17 -13 -32.5t-35 -15.5q-17 0 -31.5 12.5t-14.5 33.5q0 19 12.5 33.5t32.5 14.5zM1903 975q0 -18 -12.5 -33t-34.5 -15
q-18 0 -33 13.5t-15 34.5q0 18 14 32t33 14q22 0 35 -14.5t13 -31.5zM745 1021q19 0 32.5 -13.5t13.5 -34.5q0 -22 -15 -34t-33 -12q-22 0 -34.5 15t-12.5 33q3 21 16 33.5t33 12.5zM658 701q20 0 33 -14t13 -34t-12.5 -33.5t-31.5 -13.5q-21 0 -35.5 13.5t-14.5 33.5
q0 17 13.5 32.5t34.5 15.5zM696 329q0 19 12.5 34.5t34.5 15.5q18 0 32 -13.5t14 -33.5q0 -17 -10 -32.5t-35 -15.5q-23 0 -35.5 15t-12.5 30zM978 144q18 0 33 -14t15 -34q0 -23 -15 -34.5t-34 -11.5q-21 0 -33 14.5t-12 33.5q0 22 14.5 34t31.5 12zM1300 58q20 0 33.5 -14
t13.5 -34t-15 -33.5t-32 -13.5q-20 0 -34 13.5t-14 33.5t14 34t34 14zM1573 96q0 18 14 33t34 15q17 0 31.5 -13t14.5 -33q0 -19 -12 -33.5t-33 -14.5q-17 0 -33 11.5t-16 34.5zM1856 379q19 0 33 -14t14 -34t-14 -33.5t-34 -13.5q-23 0 -34 16.5t-11 35.5t14.5 31t31.5 12z
M445 1231q-10 0 -15 8q-61 89 -61 190q0 136 116 246q-5 12 -5 28q0 32 22.5 56t55.5 24q30 0 54 -21q85 40 163 40q163 0 262 -144q4 -4 4 -11q0 -12 -8 -15l-569 -392q-12 -9 -19 -9zM1559 1647q0 8 3 11q48 70 115.5 107t146.5 37t164 -40q24 21 53 21q32 0 55 -24.5
t23 -55.5q0 -16 -5 -28q116 -112 116 -247q0 -100 -61 -189q-5 -8 -15 -8q-6 0 -11 4l-576 397q-8 5 -8 15z" />
    <glyph glyph-name="uni23F3" unicode="&#x23f3;" 
d="M2091 -171q0 -52 -36.5 -88t-87.5 -36h-1334q-53 0 -89 37t-36 87q0 45 27 77.5t69 42.5q3 132 23.5 233t53 176.5t75 129.5t90 93t154.5 96q69 34 94 59t25 61t-26 64t-103 63q-195 87 -288.5 267t-98.5 467q-41 10 -68 42.5t-27 77.5q0 50 36 87t89 37h1334
q52 0 88 -36.5t36 -87.5q0 -44 -27.5 -78t-70.5 -42q-4 -278 -90 -453t-266 -266q-103 -52 -131.5 -79t-28.5 -63q0 -34 25.5 -61.5t105.5 -64.5q193 -90 285.5 -265t99.5 -455q43 -10 70.5 -43.5t27.5 -78.5zM682 -47h1233q-3 119 -20.5 209.5t-45 157.5t-64 115t-79.5 83
t-146 89q-82 40 -121.5 84t-39.5 106q0 57 37.5 104.5t134.5 92.5q183 87 261 242.5t83 412.5h-1233q2 -132 23.5 -235.5t58.5 -179.5t98.5 -135.5t173.5 -110.5q84 -40 122.5 -83t38.5 -108q0 -61 -40 -105.5t-121 -84.5q-91 -44 -137 -80.5t-84.5 -86.5t-66.5 -118
t-45.5 -160t-20.5 -209zM1803 245q31 -89 41 -233h-1090q8 137 41 233h471v552q0 150 -170 237q-73 37 -104 55.5t-62 44.5h736q-43 -35 -138 -86q-114 -61 -156 -115.5t-42 -135.5v-552h473z" />
    <glyph glyph-name="uni24C2" unicode="&#x24c2;" 
d="M1300 1783q281 0 521.5 -139.5t380 -380t139.5 -521.5q0 -285 -141.5 -526t-381 -378.5t-518.5 -137.5q-285 0 -527 143t-378.5 383t-136.5 516q0 272 134.5 512t377 384.5t530.5 144.5zM1300 -200q254 0 470.5 126t343.5 343t127 473q0 254 -126 470.5t-343 343.5
t-472 127t-472 -126.5t-343.5 -343.5t-126.5 -471q0 -255 126.5 -472t343.5 -343.5t472 -126.5zM1799 1353q23 0 26 -24l93 -1109q0 -9 -7.5 -16.5t-18.5 -7.5h-230q-11 0 -18 7t-8 16l-47 471l-178 -477q-7 -17 -25 -17h-172q-20 0 -25 17l-179 477l-45 -471
q-2 -9 -9.5 -16t-16.5 -7h-232q-11 0 -18.5 7.5t-7.5 20.5l93 1105q3 24 26 24h247q21 0 24 -18l229 -742l228 742q5 18 24 18h247z" />
    <glyph glyph-name="H18543" unicode="&#x25aa;" 
d="M1557 501h-513v516h513v-516z" />
    <glyph glyph-name="H18551" unicode="&#x25ab;" 
d="M1556 1015v-513h-513v513h513zM1459 917h-318v-318h318v318z" />
    <glyph glyph-name="uni25B6" unicode="&#x25b6;" 
d="M2073 731l-1547 -893v1785z" />
    <glyph glyph-name="uni25C0" unicode="&#x25c0;" 
d="M2073 1624v-1785l-1547 893z" />
    <glyph glyph-name="lozenge" unicode="&#x25ca;" 
d="M1970 739l-619 -1010h-104l-617 1007l617 1014h104zM1718 739l-418 701l-418 -701l418 -704z" />
    <glyph glyph-name="uni25FB" unicode="&#x25fb;" 
d="M2065 1531v-1531h-1531v1531h1531zM1947 1413h-1295v-1295h1295v1295z" />
    <glyph glyph-name="uni25FC" unicode="&#x25fc;" 
d="M2065 0h-1531v1531h1531v-1531z" />
    <glyph glyph-name="uni25FD" unicode="&#x25fd;" 
d="M1741 1192v-883h-882v883h882zM1623 1075h-646v-649h646v649z" />
    <glyph glyph-name="uni25FE" unicode="&#x25fe;" 
d="M1741 310h-882v882h882v-882z" />
    <glyph glyph-name="uni2600" unicode="&#x2600;" 
d="M1300 1238q130 0 243 -65t177.5 -177.5t64.5 -242.5t-64.5 -242t-177.5 -177.5t-243 -65.5t-242.5 64.5t-177.5 177t-65 243.5q0 130 64.5 242.5t177 177.5t243.5 65zM1195 1326q-13 0 -21 9.5t-8 20.5l1 9l106 284q7 19 27 19t27 -19l105 -284l1 -9q0 -11 -8 -20.5
t-21 -9.5h-209zM1623 1253q0 17 17 26l274 127l12 2q11 0 20 -8t9 -21l-3 -12l-126 -274q-7 -14 -20 -17q-18 0 -28 9l-146 147q-9 7 -9 21zM2215 753q0 -20 -19 -27l-284 -106l-9 -1q-13 0 -21.5 8t-8.5 22v208q0 11 8 20t19 9l12 -1l284 -105q19 -7 19 -27zM1955 126
q0 -12 -8 -20.5t-21 -8.5l-12 3l-274 126q-17 7 -17 26q0 13 9 21l146 148q9 9 22 9q17 0 26 -17l126 -274zM1404 180q11 0 20 -9.5t9 -20.5l-1 -11l-105 -282q-6 -19 -27 -19t-27 19l-106 282l-1 10q0 12 8 21t21 10h209zM977 252q0 -18 -18 -26l-273 -126l-12 -3
q-30 0 -30 29l3 13l126 274q7 17 26 17q13 0 21 -9l148 -148q9 -8 9 -21zM697 619l-11 1l-282 106q-19 6 -19 27t19 27l282 105l11 2q13 0 21 -9.5t8 -20.5v-208q0 -13 -8 -21.5t-21 -8.5zM644 1379q0 14 9.5 21.5t20.5 7.5l12 -2l273 -127q18 -8 18 -26q0 -14 -9 -21
l-148 -147q-8 -9 -20 -9q-19 0 -27 17l-126 274z" />
    <glyph glyph-name="uni2601" unicode="&#x2601;" 
d="M2333 673q0 -117 -83.5 -200.5t-201.5 -83.5q-51 0 -88 14q-35 -122 -133.5 -196.5t-222.5 -74.5t-223 75q-129 -106 -297 -106q-138 0 -252.5 73t-172.5 196l-20 -1h-20q-146 0 -249 102.5t-103 249.5q0 90 44 170t122 128t168 52q12 121 103.5 207.5t218.5 86.5
q76 0 148 -37q52 65 127 103t165 38q116 0 210 -64.5t137 -167.5q23 4 54 4q76 0 142.5 -38.5t104 -104t37.5 -140.5q118 0 201.5 -83.5t83.5 -201.5zM2048 507q68 0 117.5 48t49.5 118t-50 118.5t-117 48.5q-50 0 -84 35t-34 83q0 68 -49 116.5t-117 48.5l-54 -4
q-36 0 -66 19.5t-44 53.5q-30 72 -94 115.5t-143 43.5q-59 0 -111 -25.5t-89 -70.5q-35 -45 -92 -45q-27 0 -53 13q-50 24 -95 24q-80 0 -138 -54t-66 -133q-4 -45 -36.5 -74.5t-75.5 -31.5q-95 -6 -158.5 -73.5t-63.5 -159.5q0 -98 69 -166.5t165 -68.5h13l13 2
q88 0 121 -67q41 -89 128 -145.5t190 -56.5q122 0 223 80q34 26 74 26q38 0 71 -24q69 -52 152 -52q84 0 152 52t91 133q10 38 41.5 62.5t71.5 24.5q22 0 43.5 -7t44.5 -7z" />
    <glyph glyph-name="uni260E" unicode="&#x260e;" 
d="M2076 224l-3 -159q0 -72 -36.5 -101.5t-122.5 -29.5h-1235q-86 0 -123.5 29.5t-37.5 101.5l-3 158q0 109 25 184q68 207 145 465q129 35 203.5 100.5t74.5 146.5q0 47 -19 106q129 66 349 66q248 0 362 -66q-19 -59 -19 -106q0 -79 72 -145t199 -100q41 -137 145 -467
q24 -67 24 -183zM1233 906q0 -32 12 -42t47 -10q42 0 58.5 8t16.5 40q0 26 -15 36.5t-47 10.5q-47 0 -59.5 -9.5t-12.5 -33.5zM1231 759q0 -36 13 -48t68 -12q30 0 44 10.5t14 41.5q0 27 -15.5 39.5t-50.5 12.5q-48 0 -60.5 -9t-12.5 -35zM1227 592q0 -35 14 -48t64 -13
q37 0 52.5 10.5t15.5 44.5q0 30 -18 44.5t-75 14.5q-11 0 -32 -7.5t-21 -45.5zM1117 420q0 48 -60 50l-31 2q-32 0 -47.5 -16.5t-15.5 -59.5q0 -26 12 -37.5t42 -11.5q50 0 71 7.5t25 33.5q4 14 4 32zM1125 599q0 22 -17.5 34t-64.5 12q-31 0 -48 -13.5t-17 -52.5
q0 -32 16.5 -40t56.5 -8t53.5 9.5t16.5 28.5q4 14 4 30zM1132 761q0 42 -64 42q-30 0 -46.5 -5.5t-23.5 -16t-7 -38.5q0 -31 19 -37.5t59 -6.5q34 0 48.5 12.5t14.5 49.5zM1138 910q0 39 -59 39q-42 0 -58.5 -9.5t-16.5 -39.5q0 -25 9.5 -35.5t38.5 -10.5q56 0 71 11t15 45z
M1377 400v13q0 55 -60 57l-33 2q-59 0 -59 -54q0 -38 10.5 -54.5t47.5 -16.5q59 0 76.5 11t17.5 42zM1525 854q28 0 44 3.5t22 10.5t6 29q0 26 -14.5 39t-51.5 13q-35 0 -52 -6t-17 -29q0 -36 13 -48t50 -12zM1469 764q0 -38 14.5 -51.5t70.5 -13.5q21 0 33 5t17 12.5
t5 28.5q0 26 -13.5 42t-55.5 16q-44 0 -57.5 -8t-13.5 -31zM1477 603q0 -43 14 -57.5t67 -14.5q39 0 52.5 10t13.5 39q0 40 -19.5 52.5t-77.5 12.5q-50 0 -50 -42zM1639 388q0 49 -15 65.5t-45 16.5l-38 2q-56 0 -56 -47q0 -42 13 -60t51 -18q48 0 69 7.5t21 33.5z
M2294 1132q0 -97 -60 -149.5t-169 -52.5q-75 0 -166.5 28.5t-138 70.5t-46.5 91q0 27 10.5 55t10.5 54q0 42 -52.5 73.5t-163 49.5t-228.5 18q-104 0 -210 -18.5t-161.5 -50t-55.5 -71.5q0 -26 10 -54.5t10 -55.5q0 -47 -46 -89.5t-133.5 -71.5t-170.5 -29q-108 0 -168.5 53
t-60.5 149q0 124 71.5 229t220 185.5t333 116t369.5 35.5q219 0 405.5 -43t320.5 -120.5t201.5 -182t67.5 -220.5z" />
    <glyph glyph-name="uni2611" unicode="&#x2611;" 
d="M2290 1821q20 0 34.5 -14.5t14.5 -34.5v-1980q0 -20 -14.5 -34.5t-34.5 -14.5h-1980q-20 0 -34.5 14.5t-14.5 34.5v1980q0 20 14.5 34.5t34.5 14.5h1980zM2218 1701h-1837v-1837h1837v1837zM1057 153l-610 607l153 152l457 -453l943 952l153 -152z" />
    <glyph glyph-name="uni2614" unicode="&#x2614;" 
d="M2262 635q0 -50 -6.5 -73.5t-35.5 -23.5q-20 0 -30 15q-47 55 -112 85t-137 30q-90 0 -166 -45.5t-120 -124.5q-11 -20 -34 -20q-24 0 -35 20q-61 112 -183 152v-584q0 -93 -47 -173.5t-128 -127t-173 -46.5q-118 0 -212 72.5t-125 190.5l-3 24q0 40 28.5 69t70.5 29
q33 0 60 -20.5t35 -53.5q12 -49 53 -82t93 -33q62 0 106.5 44.5t44.5 106.5v587q-126 -37 -192 -155q-9 -19 -35 -19q-24 0 -34 19q-41 77 -119 123.5t-167 46.5q-72 0 -136.5 -30t-111.5 -85q-12 -15 -31 -15q-42 0 -42 97q0 183 114 344.5t315 263.5t441 119l15 211
q2 31 25.5 51.5t58.5 20.5q31 0 53.5 -20.5t24.5 -51.5l16 -211q234 -19 432.5 -119t313.5 -261t115 -347zM1816 903q0 61 -43.5 166.5t-73.5 105.5l-13 -3q-20 -9 -62 -107t-42 -162q0 -48 34.5 -82.5t82.5 -34.5t82.5 34.5t34.5 82.5zM1868 1434q-49 0 -83 34t-34 83
q0 40 19.5 101.5t45.5 111t39 56.5l13 3q31 0 73.5 -108t42.5 -164q0 -49 -34 -83t-82 -34zM702 1434q-50 0 -83.5 35t-33.5 82q0 62 40.5 159t63.5 110l13 3q30 0 73.5 -105.5t43.5 -166.5q0 -47 -33.5 -82t-83.5 -35z" />
    <glyph glyph-name="uni2615" unicode="&#x2615;" 
d="M1799 627q107 0 150.5 -32t43.5 -93q0 -58 -43 -120.5t-113 -101.5t-145 -39q-27 0 -27 11t9 30q55 124 84 321l3 14q3 10 38 10zM1897 484q0 27 -19 42t-38 15l-13 -2q-3 -28 -24 -118l-21 -67l-4 -11q0 -6 8 -6q14 0 45 26t48.5 57.5t17.5 63.5zM1569 725
q0 -64 -56.5 -125t-160 -94.5t-235.5 -33.5q-113 0 -221.5 27.5t-171 87.5t-62.5 131q0 109 138 179.5t359 70.5q177 0 293.5 -74.5t116.5 -168.5zM2203 515q0 -108 -64 -204.5t-175.5 -162t-221.5 -79.5l-55 -9q-28 -4 -59 -34l-20 -15q-115 -77 -218 -108.5t-224 -31.5
q-174 0 -299 45t-231.5 147.5t-168 229.5t-61.5 306q0 107 28 176.5t87.5 131t145.5 109t198 70t291 22.5q186 0 339 -57.5t250 -156.5l64 -65q9 -9 39 -12q194 -21 274.5 -93.5t80.5 -208.5zM2104 499v10q0 102 -61 156t-202 69l-72 10q-27 4 -55 47q-41 61 -137 116.5
t-211 83.5t-245 28q-291 0 -450.5 -106t-159.5 -325q0 -174 90.5 -329t231.5 -223t335 -68q72 0 166.5 25.5t167.5 64.5q40 24 111 76q11 8 28 10q109 9 191 42t144.5 86.5t95 114.5t32.5 112zM983 1222q0 124 62.5 223.5t175.5 144t213 44.5q63 0 126 -10t126 -10
q102 0 172 37t92 93q18 43 32 61.5t33 18.5q20 0 33 -53t13 -119q0 -109 -43.5 -197t-126.5 -138.5t-203 -50.5q-46 0 -129 12q-84 11 -130 11q-114 0 -207.5 -28t-143.5 -74q-11 -10 -25 -23.5t-30 -13.5q-40 0 -40 72zM1055 1263l2 -7q23 23 79.5 63.5t121.5 53t129 12.5
q47 0 146 -14q98 -15 148 -15q64 0 119.5 23.5t98 68.5t66 104.5t23.5 88.5q0 12 -6 12q-4 0 -8 -6q-37 -56 -103 -86.5t-148 -30.5q-69 0 -136.5 10t-136.5 10q-84 0 -147.5 -17t-114 -51.5t-92 -106t-41.5 -112.5z" />
    <glyph glyph-name="uni261D" unicode="&#x261d;" 
d="M2037 794q0 -177 -86.5 -321t-243.5 -222q-53 -33 -73.5 -54.5t-25.5 -45t-8 -63.5q32 0 48 -11.5t22.5 -37t6.5 -94.5v-20l-1 -26v-14l21 -1q27 -2 45.5 -13t27 -32t8.5 -106v-43l-1 -49l-999 2q0 14 0.5 34t1.5 41t2.5 54t6 79t14 63.5t62.5 17.5q4 40 16.5 103
t25 73.5t32.5 10.5h8l21 -3q-11 45 -28.5 70.5t-53.5 49.5l-48 36q-24 21 -43.5 45t-37.5 55t-34 68.5t-46.5 135t-72 189.5t-41.5 161q0 89 63.5 155.5t151.5 66.5l19 -1q19 0 26.5 14t16.5 35q26 61 75.5 88t97.5 27l46 -6q17 0 30 18q26 41 78.5 72t110.5 31q42 0 74 -10
l3 345v41q5 102 70.5 172t162.5 70q116 0 189.5 -70.5t73.5 -177.5l-30 -634q0 -22 31 -53q84 -32 134.5 -104t50.5 -211zM1475 1222l23 -82q37 6 79 6q55 0 130 -10l1 41l28 617q0 62 -39.5 99t-101.5 37q-49 0 -80.5 -36.5t-34.5 -93.5zM1164 1218q0 -18 14 -68
q45 -169 65 -227.5t45 -79t57 -20.5q37 0 60 28q-58 42 -58 142q0 77 57 113l-24 115q-11 49 -43 71t-71 22q-49 0 -75.5 -26.5t-26.5 -69.5zM888 1084q0 -22 4 -35q6 -21 31 -82.5t57.5 -128t55.5 -82.5t53 -16q35 0 63.5 23t28.5 56l-4 26l-83 270q-26 77 -101 77
q-52 0 -78.5 -29.5t-26.5 -78.5zM835 639q39 0 70.5 22t31.5 57q0 13 -6 28l-84 210q-26 63 -89 63q-46 0 -71 -27t-25 -75q0 -33 21.5 -82t55.5 -110t51.5 -73.5t44.5 -12.5zM1588 -95q0 52 -4.5 66.5t-23.5 14.5q-97 0 -372 13l-183 9q-11 0 -18 -6t-16 -42t-11 -52
q122 -14 225.5 -19t220.5 -8l182 -6v30zM1924 790q0 75 -17 127t-70 85.5t-109 35.5l-35 3q-111 13 -145 13q-119 0 -119 -93q0 -41 29 -71.5t75 -49t86 -18.5l11 1q-9 -21 -15 -60t-6 -61q-128 -31 -191 -74q-26 -18 -66 -59q-28 -30 -44 -30q-22 0 -22 22q0 21 23 74
t37 75l-26 -3q-33 0 -68 16l-13 -17q-26 -36 -55.5 -53.5t-74.5 -17.5q-60 0 -82 14q-7 -44 -46.5 -77t-117.5 -33h-15l-8 1q7 -71 33.5 -117t96.5 -101q43 -34 62 -61t31 -65t17 -94q58 -6 189.5 -13t227.5 -7q7 79 15 105q23 79 168 167q112 66 178 181.5t66 254.5z" />
    <glyph glyph-name="smileface" unicode="&#x263a;" 
d="M1300 1663q250 0 466.5 -125.5t342 -342t125.5 -466.5t-125.5 -466.5t-342 -342t-466.5 -125.5t-466.5 125.5t-342 342t-125.5 466.5t125.5 466.5t342 342t466.5 125.5zM1300 -88q225 0 415 113.5t296 302t106 401.5q0 218 -109.5 407.5t-299.5 299.5t-408 110
q-213 0 -401.5 -106t-302 -296t-113.5 -415q0 -220 109.5 -408.5t297.5 -298.5t410 -110zM975 744q-57 0 -98 48.5t-41 117.5q0 68 40.5 117.5t98.5 49.5q59 0 99.5 -50t40.5 -117q0 -69 -41 -117.5t-99 -48.5zM1623 744q-57 0 -98 48.5t-41 117.5q0 68 40.5 117.5
t98.5 49.5q59 0 99.5 -50t40.5 -117q0 -69 -41 -117.5t-99 -48.5zM1784 618q20 0 34 -12.5t14 -35.5q0 -37 -27 -88t-72.5 -99.5t-106 -90.5t-152.5 -67t-174 -25t-172.5 24.5t-153.5 67t-111.5 95t-73 103t-22.5 80.5q0 20 12.5 34t35.5 14q30 0 90 -61q163 -169 395 -169
q112 0 211 40.5t184 129.5q59 60 89 60z" />
    <glyph glyph-name="uni2648" unicode="&#x2648;" 
d="M1718 1670q153 0 281 -70.5t200 -197.5t72 -285q0 -75 -26.5 -162.5t-70.5 -141.5l-212 174q10 12 22.5 53t12.5 81q0 115 -83 194.5t-196 79.5q-115 0 -197.5 -81t-82.5 -197v-1292h-275v1292q0 74 -37.5 139t-103 102t-137.5 37q-116 0 -198 -80t-82 -194q0 -43 12 -82
t24 -52l-214 -174q-44 54 -70.5 138.5t-26.5 165.5q0 147 74 275.5t203 203t278 74.5q125 0 231.5 -51t184.5 -138q77 87 184.5 138t232.5 51z" />
    <glyph glyph-name="uni2649" unicode="&#x2649;" 
d="M1739 1067q137 -102 216.5 -257t79.5 -331q0 -199 -102 -371t-272 -267.5t-361 -95.5q-192 0 -362 95.5t-272 267.5t-102 371q0 176 79.5 330.5t216.5 257.5q-137 102 -216.5 257t-79.5 331h296q0 -119 58.5 -220.5t161.5 -160.5t220 -59q118 0 220.5 59t161 160.5
t58.5 220.5h295q0 -176 -79.5 -331t-216.5 -257zM1300 40q118 0 220.5 59t161 160.5t58.5 219.5q0 117 -58.5 219t-160.5 162.5t-221 60.5q-118 0 -220.5 -60t-161 -162.5t-58.5 -219.5t58.5 -218.5t161 -161t220.5 -59.5z" />
    <glyph glyph-name="uni264A" unicode="&#x264a;" 
d="M2119 1351q-119 -30 -294 -57v-1112q185 -29 294 -56v-304q-174 47 -396 75.5t-423 28.5q-204 0 -424 -28.5t-396 -75.5v304q114 28 294 56v1112q-169 26 -294 57v302q408 -102 820 -102q411 0 819 102v-302zM1530 1264q-108 -8 -230 -8q-119 0 -231 8v-1052q90 8 231 8
q144 0 230 -8v1052z" />
    <glyph glyph-name="uni264B" unicode="&#x264b;" 
d="M2292 616q0 -198 -128.5 -360t-363.5 -258.5t-500 -96.5q-423 0 -848 189l130 264q364 -159 718 -159q128 0 274 37q-94 62 -149.5 164t-55.5 220q0 124 62 231t169.5 169t229.5 62q124 0 231 -62t169 -169.5t62 -230.5zM1830 783q-70 0 -118.5 -50t-48.5 -117t48.5 -117
t118.5 -50q72 0 120 50.5t48 116.5q0 67 -48.5 117t-119.5 50zM770 466q-124 0 -232 62.5t-169.5 169.5t-61.5 230q0 204 134 366.5t367 255.5t492 93q203 0 425 -48.5t423 -140.5l-131 -264q-158 65 -258.5 93.5t-214.5 47t-244 18.5t-274 -37q96 -64 150 -165.5t54 -218.5
q0 -123 -61.5 -230t-168.5 -169.5t-230 -62.5zM770 761q70 0 118 49.5t48 117.5q0 70 -48.5 118.5t-117.5 48.5q-70 0 -118.5 -48.5t-48.5 -118.5q0 -68 48 -117.5t119 -49.5z" />
    <glyph glyph-name="uni264C" unicode="&#x264c;" 
d="M2229 -233q-113 -75 -249 -75q-129 0 -233 66.5t-161 185t-57 263.5q0 130 28 274t76 269q88 224 88 383q0 103 -41 175.5t-114.5 109.5t-166.5 37q-86 0 -161 -43.5t-118 -118.5t-43 -160q0 -64 21.5 -139.5t55.5 -135.5q111 -194 111 -393q0 -120 -59.5 -224
t-163.5 -164t-224 -60t-223 59t-164 163.5t-61 225.5q0 119 59.5 222t163.5 163.5t222 60.5q-33 121 -33 224q0 164 82.5 306.5t226 225.5t308.5 83q177 0 318.5 -78t219.5 -219t78 -320q0 -114 -25.5 -230t-82.5 -261q-83 -212 -83 -429q0 -104 41.5 -165t114.5 -61
q46 0 85 24zM818 311q64 0 108 45.5t44 108.5q0 61 -44 106.5t-108 45.5q-65 0 -109 -46t-44 -106q0 -63 44 -108.5t109 -45.5z" />
    <glyph glyph-name="uni264D" unicode="&#x264d;" 
d="M2215 1008q0 -560 -431 -908q78 -51 242 -51v-294q-346 0 -494 178q-195 -107 -443 -189l-92 279q243 82 421 183q-10 64 -10 195v955q0 47 -32.5 78t-75.5 31q-45 0 -77.5 -30.5t-32.5 -78.5v-855h-294v855q0 47 -32.5 78t-75.5 31q-46 0 -77.5 -31.5t-31.5 -77.5v-855
h-294v855q0 107 53.5 200.5t147.5 148t202 54.5q145 0 256 -92q111 92 256 92q154 0 269 -103t132 -260q52 15 111 15q182 0 292.5 -109.5t110.5 -293.5zM1812 1117q-45 0 -77 -30t-32 -75v-589q108 114 163 257t55 328q0 47 -32.5 78t-76.5 31z" />
    <glyph glyph-name="uni264E" unicode="&#x264e;" 
d="M2133 553v-295h-692v306q130 44 213 158.5t83 255.5q0 116 -58.5 218t-160 160.5t-218.5 58.5q-116 0 -218 -58.5t-160.5 -160t-58.5 -218.5q0 -142 83 -256t212 -158v-306h-692v295h238q-135 191 -135 425q0 196 97 364t266 267.5t368 99.5t366.5 -98.5t266.5 -266.5
t99 -366q0 -231 -137 -425h238zM2133 136v-294h-1667v294h1667z" />
    <glyph glyph-name="uni264F" unicode="&#x264f;" 
d="M1888 -281v277h-110q-111 0 -208 56.5t-152 153t-55 206.5v839q0 51 -35.5 86.5t-86.5 35.5t-86.5 -35.5t-35.5 -86.5v-896h-294v896q0 51 -35.5 86.5t-85.5 35.5q-51 0 -86.5 -35.5t-35.5 -86.5v-896h-294v896q0 111 55.5 207.5t151.5 152.5t209 56q153 0 269 -99
q114 99 268 99q112 0 208.5 -55.5t152.5 -153t56 -207.5v-839q0 -51 35.5 -86.5t84.5 -35.5h110v278l424 -424z" />
    <glyph glyph-name="uni2650" unicode="&#x2650;" 
d="M2117 1549v-1092h-276v622l-622 -622l259 -259l-194 -195l-259 260l-347 -348l-195 195l347 347l-259 260l195 193l259 -259l622 622h-622v276h1092z" />
    <glyph glyph-name="uni2651" unicode="&#x2651;" 
d="M1763 924q130 0 243 -65t178 -179t65 -243t-65.5 -242t-179 -178.5t-241.5 -65.5q-143 0 -267 79q-61 -122 -179.5 -194.5t-257.5 -72.5v276q89 0 152.5 63.5t63.5 152.5v903q0 89 -63.5 152.5t-152.5 63.5q-90 0 -153.5 -63.5t-63.5 -152.5v-721h-275v721
q0 89 -63.5 152.5t-152.5 63.5v276q104 0 195 -41t158 -111q68 70 158.5 111t196.5 41q131 0 245.5 -66.5t180.5 -181t66 -244.5v-282q100 48 212 48zM1763 226q89 0 150 62.5t61 148.5q0 88 -61 150.5t-150 62.5q-90 0 -151 -63t-61 -150q0 -86 61 -148.5t151 -62.5z" />
    <glyph glyph-name="uni2652" unicode="&#x2652;" 
d="M1948 650l252 -173v-320l-7 -10l-245 169l-323 -222l-322 222l-324 -222l-323 222l-245 -169l-11 17v309l256 177l323 -223l324 223l322 -223zM2200 1204v-321l-7 -10l-245 170l-323 -223l-322 223l-324 -223l-323 223l-245 -170l-11 17v311l256 175l323 -222l324 222
l322 -222l323 222z" />
    <glyph glyph-name="uni2653" unicode="&#x2653;" 
d="M2166 602h-336q15 -191 69.5 -395t140.5 -380h-324q-76 187 -123 387.5t-59 387.5h-483q-13 -192 -59.5 -392.5t-123.5 -382.5h-322q82 169 137.5 373.5t71.5 401.5h-321v295h321q-15 189 -69 391.5t-140 383.5h322q157 -378 183 -775h483q25 383 182 775h324
q-89 -187 -142 -386.5t-68 -388.5h336v-295z" />
    <glyph glyph-name="spade" unicode="&#x2660;" 
d="M2195 601q0 -124 -63 -232.5t-172 -171.5t-232 -63q-173 0 -303 111q17 -100 43.5 -189.5t54 -156.5t35.5 -76l5 -21q0 -15 -11.5 -26.5t-28.5 -11.5h-447q-16 0 -28 11.5t-12 26.5q0 12 5 21q8 8 35.5 76.5t53.5 156.5t44 189q-130 -111 -301 -111q-125 0 -233.5 62.5
t-172 171t-63.5 233.5q0 124 50 250t145.5 254t233 251t292 228t174.5 105l20 -6q234 -134 447 -326t321 -383.5t108 -372.5z" />
    <glyph glyph-name="club" unicode="&#x2663;" 
d="M1786 1016q125 0 233.5 -62.5t172 -171t63.5 -234.5q0 -125 -63 -234t-171.5 -171.5t-234.5 -62.5q-104 0 -194.5 42.5t-154.5 114.5q41 -200 121 -360q5 -10 5 -19q0 -17 -11.5 -27.5t-28.5 -10.5h-448q-14 0 -26.5 10.5t-12.5 27.5q0 11 5 19l14 30q26 50 56.5 141.5
t51.5 188.5q-65 -72 -155 -114.5t-196 -42.5q-125 0 -233.5 63t-171 172t-62.5 233q0 125 63 233.5t171.5 171.5t232.5 63q34 0 66 -6q-47 100 -47 203q0 124 63 233.5t172.5 172t233.5 62.5q125 0 234 -63.5t171 -172t62 -232.5q0 -108 -46 -203q33 6 65 6z" />
    <glyph glyph-name="heart" unicode="&#x2665;" 
d="M1718 1498q123 0 228.5 -61t167.5 -168t62 -229q0 -143 -71.5 -297.5t-209 -304t-292 -266t-284.5 -191.5q-8 -6 -19 -6q-12 0 -19 6q-134 76 -287 192.5t-290.5 266t-209 304t-71.5 296.5q0 122 61.5 228.5t168.5 168t229 61.5q135 0 249 -74.5t169 -195.5
q56 124 170.5 197t247.5 73z" />
    <glyph glyph-name="diamond" unicode="&#x2666;" 
d="M2101 738q0 -16 -8 -24l-763 -976q-11 -15 -30 -15t-32 15l-761 976q-8 8 -8 24q0 14 8 25l761 975q9 14 32 14q21 0 30 -14l763 -975q8 -11 8 -25z" />
    <glyph glyph-name="uni2668" unicode="&#x2668;" 
d="M862 538q0 150 -56 335q-43 135 -43 256q0 86 21.5 152.5t54 116t76 86t87.5 59.5t57 23q21 0 21 -19q0 -14 -11 -19q-1 0 -11 -9t-22 -33t-22 -66.5t-10 -110.5q0 -141 52 -347q32 -122 32 -228q0 -154 -64.5 -267.5t-176.5 -168.5l-9 -2q-8 0 -14 6t-6 14t4 13
q22 44 31 94t9 115zM1241 538q0 150 -56 335q-42 132 -42 255q0 86 21.5 152.5t53.5 116t75 86t86.5 60t59.5 23.5q9 0 14.5 -6t5.5 -14q0 -13 -11 -18q-25 -21 -38 -51.5t-20.5 -70t-7.5 -98.5q0 -142 52 -346q32 -122 32 -230q0 -84 -18 -150t-44.5 -115t-61.5 -85.5
t-73 -61t-51 -24.5q-9 0 -15.5 6.5t-6.5 15.5q0 6 4 11q7 7 17.5 38t17 74t6.5 97zM1621 536q0 149 -58 337q-42 132 -42 256q0 86 21.5 153t54.5 116t77 86t86 59.5t57 22.5q9 0 15.5 -5.5t6.5 -14.5q0 -13 -13 -18q-64 -58 -64 -219q0 -141 52 -347q31 -119 31 -228
q0 -85 -17.5 -150.5t-45 -115t-62.5 -86t-73.5 -61.5t-50.5 -25q-7 0 -13.5 6t-6.5 14t4 13q0 1 6.5 13.5t14 37.5t14 64t6.5 92zM2228 402q0 -153 -125.5 -283.5t-340 -205.5t-462.5 -75q-251 0 -465.5 76t-339 206.5t-124.5 281.5q0 125 87 238t133 113q14 0 24 -9t10 -24
q0 -17 -13 -37q-50 -83 -50 -160q0 -119 98.5 -221.5t270 -162t369.5 -59.5q199 0 373 61t270 163.5t96 218.5q0 76 -51 160q-12 17 -12 37q0 15 9 24t23 9q46 0 133 -112.5t87 -238.5z" />
    <glyph glyph-name="uni267B" unicode="&#x267b;" 
d="M1185 1415q0 26 43 26h17l79 2h131q76 0 94.5 -8.5t41 -32.5t100.5 -147q41 -66 70 -66q7 0 17 6q52 31 78 31q32 0 32 -41l-2 -25q-16 -102 -25 -144l-25 -123q-5 -20 -26 -31t-52 -11q-163 0 -259.5 16.5t-96.5 46.5q0 16 14 30.5t31.5 27.5t31.5 26t14 28
q0 18 -18 42.5t-62 67.5l-35 37l-187 226q-6 5 -6 16zM1313 1156q0 -39 -57 -100l-23 -28l-30 -43q-70 -103 -106 -103l-12 3q-55 30 -142 97l-27 19q-69 47 -71 80q0 43 41 94l20 27l37 59q81 138 124 138q47 0 170 -137l22 -22q54 -50 54 -84zM669 129q-12 0 -41 48
q-43 57 -92 153q-16 29 -34 60.5t-18 64.5q0 42 44 124l19 39l30 61q19 36 19 54q0 13 -15 22t-32.5 19t-32.5 22.5t-15 31.5q0 37 146 81l117 39q28 10 58 10q64 0 114 -118q44 -102 58.5 -142t19 -52t7 -23t2.5 -21q0 -39 -37 -39q-16 0 -51 16q-37 16 -49 16
q-14 0 -27.5 -19.5t-33.5 -82.5l-13 -33q-15 -31 -77 -203q-46 -128 -66 -128zM1189 308q0 -39 -5.5 -89.5t-17.5 -120t-25 -84t-46 -14.5q-83 0 -273 14q-82 0 -82 48q0 86 44 197l14 40q28 86 69 86l249 -26q73 -3 73 -51zM2058 402q29 0 29 -14q0 -11 -8 -24l-13 -24
q-14 -35 -34 -66l-39 -64l-20 -39q-32 -66 -64 -84t-136 -20q-57 -1 -113 -12l-22 -3q-51 -4 -51 -38l1 -39q0 -71 -30 -71q-14 0 -21 5t-15 12q-33 33 -70 62t-70 61l-27 26q-75 65 -75 110q0 12 4 20.5t30 48t58.5 82t61 80.5t50 55.5t39.5 17.5q30 0 30 -37l2 -19l1 -28
q0 -33 10 -48.5t34 -15.5q20 0 40 1.5t309 50.5q82 14 109 14zM2115 529q0 -57 -150 -89q-36 -8 -73.5 -20t-74.5 -12q-26 0 -65 59t-61 130q-11 32 -25 60t-14 61q0 18 34.5 39.5t106 49t109.5 42t45 10.5q45 0 88 -107l34 -82q46 -102 46 -141z" />
    <glyph glyph-name="uni267F" unicode="&#x267f;" 
d="M1473 182q35 0 134 6q-16 -136 -93 -249t-198.5 -177.5t-258.5 -64.5q-147 0 -275 74t-202.5 202t-74.5 276q0 131 59 248t165 195t233 100q7 -150 37 -252q-104 -22 -171 -103.5t-67 -187.5q0 -123 87 -210t209 -87q107 0 189 68t103 172q55 -10 124 -10zM2214 -41
q0 -51 -68 -89.5t-147 -38.5q-69 0 -101 33t-54 140q-11 51 -35 133t-42 112.5t-49.5 44t-75.5 13.5l-167 -7q-178 0 -252 74q-55 55 -86.5 129t-45.5 164.5t-14 272.5q0 135 43 207t116 72q67 0 108.5 -28t85.5 -87q29 -40 70 -77t109 -67.5t202 -59.5q69 -16 92.5 -24
t61.5 -32t55.5 -49.5t17.5 -54.5q0 -30 -17 -48.5t-43 -18.5q-52 0 -112 41q-13 9 -95 16q-78 7 -121 17.5t-128 53.5l-17 6q-9 0 -9 -14q2 -95 19 -133.5t54 -61.5t143 -39q122 -18 178 -70q74 -71 96 -205q8 -50 19 -102t21.5 -86.5t26.5 -46t66 -14.5q49 -3 72 -24.5
t23 -51.5zM1209 1304q-89 0 -154.5 65t-65.5 157q0 91 65 156t155 65q92 0 157 -65t65 -156q0 -92 -64 -157t-158 -65z" />
    <glyph glyph-name="uni2693" unicode="&#x2693;" 
d="M2238 337q0 -34 -34 -34q-16 0 -41 24q-25 23 -41 23q-19 0 -24.5 -13.5t-9.5 -25.5q-52 -134 -128.5 -240t-170 -174.5t-224 -112t-265.5 -47.5q-166 5 -324.5 69t-269.5 182.5t-177 282.5l-7 21q-20 58 -44 58q-16 0 -41 -23q-25 -24 -41 -24q-34 0 -34 35q0 64 72 244
q27 67 78 67q19 0 33 -5q58 -26 140.5 -87.5t82.5 -89.5q0 -32 -53 -32q-24 0 -39.5 -3.5t-15.5 -20.5q0 -28 43.5 -86t59.5 -70q146 -163 277 -163q105 0 115 136l5 62l33 275l2 31q0 25 -12.5 47t-65.5 40.5t-128 32.5q-48 8 -65 17t-24 23t-7 34q0 43 26.5 59.5
t117.5 16.5q136 0 164 31q20 24 20 100q0 24 -6.5 40.5t-16.5 27.5t-50 32q-93 49 -145 128t-52 172q0 84 47 154t128.5 110t173.5 40t173.5 -40t128 -110t46.5 -152q0 -212 -200 -304q-69 -32 -69 -97q0 -15 7 -71q4 -30 42.5 -45.5t135.5 -15.5q87 0 114.5 -17.5
t27.5 -58.5q0 -29 -13 -44t-42 -23l-39 -7q-63 -11 -120 -30t-72 -38t-15 -54l3 -31l36 -335q12 -136 115 -136q45 0 99 24.5t107 68t113 119.5t60 107q0 15 -13 19.5t-40 4.5q-55 0 -55 31q0 28 83.5 89.5t141.5 88.5q12 5 31 5q31 0 56 -30.5t60.5 -133.5t35.5 -148z
M1166 1388q0 -55 38.5 -95t95.5 -40t95.5 40t38.5 95q0 56 -39 95t-95 39t-95 -39t-39 -95z" />
    <glyph glyph-name="uni26A0" unicode="&#x26a0;" 
d="M2422 -205q0 -24 -17.5 -41t-41.5 -17h-2127q-23 0 -41 16.5t-18 41.5q0 16 8 30l1064 1843q17 29 51 29q33 0 51 -29l1063 -1843q8 -14 8 -30zM2262 -145l-962 1665l-962 -1665h1924zM1214 403q-5 0 -8.5 3.5t-3.5 6.5l-47 677q0 5 4 8t7 3h267q12 0 12 -11l-48 -677
q0 -10 -11 -10h-172zM1160 48q0 67 36 101.5t106 34.5q63 0 100.5 -35.5t37.5 -100.5q0 -60 -36 -97.5t-102 -37.5q-67 0 -104.5 35t-37.5 100z" />
    <glyph glyph-name="uni26A1" unicode="&#x26a1;" 
d="M2140 755q0 -14 -10 -20l-1619 -1018q-3 -3 -10 -3t-13.5 5t-6.5 14t5 14l711 773l-723 213q-14 6 -14 19q0 11 8 17l1617 986l11 3q6 0 12.5 -5t6.5 -14t-5 -14l-710 -773l725 -182q5 -1 10 -5.5t5 -9.5z" />
    <glyph glyph-name="uni26AA" unicode="&#x26aa;" 
d="M1300 996q97 0 165.5 -68.5t68.5 -165.5t-68.5 -165.5t-165.5 -68.5t-165.5 68.5t-68.5 165.5t68.5 165.5t165.5 68.5zM1300 646q48 0 82 34t34 82t-34 82t-82 34t-82 -34t-34 -82t34 -82t82 -34z" />
    <glyph glyph-name="uni26AB" unicode="&#x26ab;" 
d="M1300 997q97 0 165.5 -68.5t68.5 -165.5t-68.5 -165.5t-165.5 -68.5t-165.5 68.5t-68.5 165.5t68.5 165.5t165.5 68.5z" />
    <glyph glyph-name="uni26BD" unicode="&#x26bd;" 
d="M1300 1777q283 0 526 -142t382 -384.5t139 -521.5q0 -283 -142 -526.5t-384 -382t-521 -138.5q-278 0 -520 138t-384.5 381t-142.5 528q0 279 139 521.5t382.5 384.5t525.5 142zM2008 549q127 78 221 189q0 154 -56 311q-88 106 -214 184q-38 -35 -81 -63l-85 -59
q-31 -25 -67 -34q7 -72 7 -160q0 -80 -8 -180q63 -18 158 -79.5t125 -108.5zM371 726q0 -171 58.5 -323.5t160.5 -273.5l78 18q-65 150 -72 311q-50 32 -99.5 101.5t-77.5 167.5zM1118 1641q-264 -51 -463 -244q-29 -111 -29 -224v-21l1 -18q56 -5 105 -18l102 -26l44 -15
q90 90 199 149.5t220 87.5l-2 25v23q0 51 9 116t26 99q-105 48 -212 66zM1118 -81q182 53 320 165q-37 72 -71 185.5t-34 130.5q-120 22 -237.5 69.5t-210.5 111.5q-28 -19 -59 -32.5t-58 -29.5q-87 -47 -113 -57q8 -166 81 -321q73 -53 147 -97t235 -125zM1674 910
q0 86 -8 171l-133 72q-125 67 -182 92l-28 14q-224 -54 -401 -223q4 -11 4 -33l-4 -252l4 -126q87 -59 199.5 -104t221.5 -63q38 53 80 97q97 92 177 142q14 8 29 19.5t33 19.5q8 96 8 174zM2097 1207q-67 111 -164 201q18 -22 35.5 -60t17.5 -62q64 -38 111 -79zM1559 1622
q-135 37 -259 37h-8l-10 -1q64 -23 103 -43q20 8 116 8h28zM578 1314q-187 -231 -205 -529h20l19 1q5 79 59.5 183.5t96.5 144.5l-1 25v27q0 67 11 148zM1300 -200q178 0 333.5 61.5t280.5 169.5q-36 39 -61 74q-55 -31 -148 -50t-193 -19l-38 1q-139 -113 -304 -164l33 -68
q38 -5 97 -5zM1958 74q112 112 182.5 258t85.5 315q-53 -54 -112.5 -98.5t-102.5 -64.5q-5 -84 -35.5 -178t-76.5 -161q30 -42 59 -71z" />
    <glyph glyph-name="uni26BE" unicode="&#x26be;" 
d="M1300 1779q278 0 520 -138t384.5 -381t142.5 -528q0 -279 -139 -522t-382.5 -384.5t-525.5 -141.5q-286 0 -529.5 144.5t-380.5 385.5t-137 518q0 281 140.5 523.5t382.5 383t524 140.5zM1300 -198q246 0 461.5 123.5t341.5 340t126 466.5q0 79 -15 167q-22 13 -50 13
l-37 -7q-11 0 -19 8t-8 19q0 20 -8 38.5t-20 28.5q-19 16 -19 29q0 11 8 18.5t19 7.5q16 0 38.5 -28.5t30.5 -60.5h14q22 0 37 -4l-31 101q-22 -9 -25 -9q-8 0 -16 5t-10 13q-7 23 -27 41.5t-29 18.5q-18 7 -18 26q0 11 8.5 18.5t18.5 7.5q22 0 59 -34q-33 61 -41 72l-19 3
l-23 -3q-11 0 -19.5 7.5t-8.5 18.5q0 22 33 29l-51 66q-3 -4 -13 -4q-11 0 -19.5 7.5t-8.5 18.5q0 10 6 16q-133 135 -305.5 208t-360.5 73q-103 0 -204 -23q-7 -17 -25 -17q-9 0 -16 7l-56 -18q6 -9 6 -20q0 -10 -7.5 -18t-18.5 -8q-9 0 -15.5 4.5t-15.5 22.5
q-32 -12 -64 -29q4 -13 11.5 -22.5t14.5 -16t12.5 -9.5t6.5 -4q13 -6 13 -24q0 -26 -26 -26l-11 2l-8 5q-15 7 -33 26.5t-27 42.5q-56 -28 -121 -82l9 -1h9q25 0 47 12l12 3q21 0 26 -21q10 -42 43 -62l6 -5q16 -6 16 -23q0 -11 -8 -19t-19 -8q-18 0 -45.5 27.5t-34.5 48.5
q-24 -7 -44 -7q-38 0 -63 15q-145 -132 -222 -310.5t-77 -371.5q0 -102 23 -211l13 3q9 0 18.5 -5.5t33.5 -5.5q26 0 42 10l13 2q21 0 26 -23q5 -43 34 -62l9 -8q14 -8 14 -25q0 -10 -8.5 -17t-17.5 -7l-12 3q-8 0 -31.5 25.5t-33.5 52.5q-16 -4 -34 -4q-27 0 -51 9l24 -72
l12 2q11 0 18.5 -7t7.5 -16q3 -27 20.5 -48.5t24.5 -21.5q13 -6 13 -22q0 -27 -28 -27q112 -187 294.5 -305t392.5 -143q-24 20 -61 20l-17 -1q-11 0 -18.5 8t-7.5 19q0 16 10 22t33 6q41 0 77 -21q15 23 41.5 39.5t47.5 16.5q11 0 18.5 -7.5t7.5 -18.5q0 -22 -20 -26
q-13 0 -33 -16t-29 -37l-7 -8zM1682 643q45 -11 78 -49l7 -7q4 -5 4 -15q0 -11 -7.5 -18.5t-18.5 -7.5q-15 0 -23 11q-32 35 -73 37q-9 0 -17.5 6.5t-8.5 20.5l7 41q0 22 -5.5 34.5t-6.5 15.5q-6 8 -6 15q0 10 8 18t18 8q9 0 16 -3.5t18.5 -28.5t11.5 -57v-10zM1271 35
q26 0 26 -26q0 -11 -8 -19.5t-19 -8.5q-47 0 -74 -35q-9 -10 -23 -10t-21 13q-11 18 -31.5 30.5t-38.5 12.5q-23 4 -23 25q0 12 7.5 20.5t19.5 8.5q18 0 44.5 -12t46.5 -32q19 16 46 24.5t48 8.5zM2160 792q0 -9 -7.5 -17.5t-20.5 -8.5q-11 0 -18 10l-6 5q-9 9 -27.5 16.5
t-35.5 7.5h-11q-11 0 -18.5 7.5t-7.5 18.5l3 30q0 25 -9 40.5t-10 17.5q-7 7 -7 16q0 11 8.5 18.5t18.5 7.5q12 0 20 -8q32 -48 32 -96q50 -7 90 -47q6 -8 6 -18zM1932 784q19 -7 33.5 -17t24 -20t14.5 -17.5t6 -8.5l2 -12q0 -9 -7.5 -18.5t-18.5 -9.5q-14 0 -31 24
q-23 32 -62 34q-9 0 -16 7t-7 18q0 12 6 25.5t6 26.5q0 21 -11 46l-2 9q0 9 7 18t17 9q13 0 25 -14q16 -24 16 -68v-16zM1447 481q32 -8 59.5 -29t27.5 -40q0 -11 -8 -19.5t-18 -8.5t-29 21q-25 27 -67 29q-11 0 -18.5 8t-7.5 19t4.5 21.5t4.5 20.5q0 29 -15 52l-3 10
q0 11 7 19t17 8q21 0 34 -31t13 -62zM733 661q0 -11 -7.5 -19t-18.5 -8l-13 4q-4 3 -12 8t-17 14t-18.5 22t-16.5 32l-31 -4q-23 0 -48 9t-30 15t-5 15q0 10 8.5 18.5t19.5 8.5q9 0 19.5 -6t33.5 -6q21 0 41 9l11 3q11 0 18.5 -7t7.5 -16q5 -44 45 -69q13 -7 13 -23z
M1453 361q0 -11 -7.5 -18t-16.5 -7q-10 0 -20.5 5t-29.5 5q-23 0 -45 -12l-12 -3q-21 0 -27 22q-7 42 -40 62l-7 5q-15 6 -15 22q0 12 8.5 19.5t17.5 7.5l11 -1q1 -1 9 -5.5t18.5 -13.5t21.5 -23.5t19 -33.5q21 7 43 7q35 0 59 -12q13 -9 13 -26zM823 1225q0 -11 -7.5 -17.5
t-18.5 -6.5l-11 1q-48 27 -68 74q-21 -7 -44 -7q-73 0 -73 36q0 11 8.5 18.5t17.5 7.5l7 -1q10 -7 40 -7q28 0 46 12l14 3q21 0 26 -21q7 -41 48 -66q15 -8 15 -26zM786 976q0 -26 -30 -26q-55 9 -88 47q-38 -28 -87 -28q-33 0 -33 26q0 11 7.5 19.5t18.5 8.5l9 -2
q38 0 69 33q5 8 18 8q16 0 24 -12q12 -20 33 -34t36 -14q9 -1 16 -9t7 -17zM1807 714q27 -8 52.5 -31.5t25.5 -31.5l3 -12q0 -9 -7.5 -18t-18.5 -9q-14 0 -24 13q-19 38 -69 44q-10 0 -17 7.5t-7 17.5q0 11 6.5 25t6.5 27q0 25 -7 34.5t-7 18.5q0 11 7.5 20t18.5 9
q18 0 29 -26t11 -56zM1564 562q31 -8 57.5 -29t26.5 -27q4 -7 4 -15q0 -11 -7 -18.5t-19 -7.5q-13 0 -22 11q0 3 -11 13t-26.5 17t-34.5 7q-27 2 -27 26l7 42q0 27 -8 42q-9 15 -9 22q0 11 8 19t19 8q13 0 22 -11q2 -5 12 -25t10 -55v-9zM666 534q0 -13 -9 -19t-17 -6
q-10 0 -14 3q-43 22 -63 78l-36 -4q-28 0 -45.5 6.5t-18.5 8.5q-15 6 -15 23q0 11 8.5 18.5t18.5 7.5l10 -2q22 -10 42 -10q26 0 43 11l11 1q23 0 27 -22q5 -44 44 -70q14 -12 14 -24zM771 834q0 -13 -9 -19.5t-20 -6.5q-19 0 -44.5 13t-44.5 34q-39 -28 -90 -28
q-30 0 -30 27q0 11 7.5 18.5t18.5 7.5l15 -1q38 0 63 33q7 9 23 9q15 -2 19 -13q12 -21 34 -34.5t35 -13.5q23 -5 23 -26zM1392 232q0 -11 -8.5 -18t-17.5 -7q-10 0 -19 5t-29 5q-24 0 -45 -12l-13 -4q-22 0 -26 23q-8 47 -48 67q-15 7 -15 22q0 11 7 19t18 8l12 -2
q9 0 33 -23t36 -51q18 5 41 5q26 0 42 -5.5t18 -5.5q14 -7 14 -26zM801 1119q0 -14 -9.5 -20.5t-20.5 -6.5q-52 9 -88 47q-37 -27 -87 -27q-34 0 -34 26q0 11 8 18.5t19 7.5q49 0 78 33q8 8 19 8q17 0 24 -14q13 -22 32 -34t36 -12q9 -2 16 -9.5t7 -16.5zM1330 103
q0 -12 -7.5 -19t-18.5 -7q-8 0 -18.5 5.5t-29.5 5.5q-21 0 -45 -12q-5 -4 -12 -4q-24 0 -26 22q-4 25 -21 46t-27 21q-15 6 -15 23q0 11 7 19.5t17 8.5l13 -3q1 -1 8.5 -5t18 -13t22 -23t19.5 -33q18 5 40 5q26 0 42.5 -5.5t17.5 -6.5q15 -6 15 -25z" />
    <glyph glyph-name="uni26C4" unicode="&#x26c4;" 
d="M1166 1202q-2 -41 -26 -68.5t-58 -27.5q-31 0 -55 28t-24 68q0 42 23.5 71.5t58.5 29.5t58 -30.5t23 -70.5zM1486 1303q33 0 59 -27.5t26 -68.5q0 -43 -23 -72t-55 -29q-33 0 -59 27t-26 69q0 43 22.5 72t55.5 29zM1412 1058q14 0 19.5 -6t5.5 -26q0 -33 -5 -39.5
t-44 -10.5t-87 -4q-61 0 -141 8q-20 2 -20 42q0 36 16 36l162 -2zM2215 902q20 0 36 -15.5t16 -36.5q0 -27 -20 -42l-258 -200q75 -144 75 -298q0 -159 -78.5 -301.5t-222 -236t-323.5 -117.5q-91 -12 -152 -12q-63 0 -152 12q-179 24 -323 117t-223 235.5t-79 302.5
q0 168 89 322l-249 223q-18 18 -18 38q0 22 15.5 37t36.5 15q19 0 34 -12l101 -90l21 74q5 17 18.5 27.5t30.5 10.5q23 0 37.5 -14.5t14.5 -36.5v-7q0 -4 -35 -132l52 -46q46 68 145 143q-121 155 -121 349q0 158 82.5 295t225.5 215.5t308 78.5t308 -79t225.5 -215
t82.5 -295q0 -201 -130 -361q86 -68 148 -152l67 50l-22 139q0 20 16 36t38 16q18 0 32.5 -12t17.5 -32l11 -74l91 70q14 11 31 11zM1940 308q0 123 -61 242t-169 201q-50 38 -50 99q0 44 28 78q102 124 102 283q0 124 -65 231.5t-180 171t-246 63.5t-246 -63t-180 -171.5
t-65 -231.5q0 -151 95 -274q26 -33 26 -76q0 -35 -14.5 -58.5t-44.5 -48.5q-89 -73 -138.5 -144.5t-73.5 -148t-24 -151.5q0 -132 67 -247t185.5 -190t265.5 -95q91 -11 136 -11q44 0 135 11q145 20 264.5 94.5t186 188.5t66.5 247z" />
    <glyph glyph-name="uni26C5" unicode="&#x26c5;" 
d="M1522 1504l3 9l100 206q7 12 19 12q18 0 22 -15.5t59 -226.5q0 -11 -8 -16.5t-17 -5.5l-158 15q-20 5 -20 22zM1859 1393q0 16 15 22l215 74l8 1q8 0 15 -7t7 -15l-2 -11l-116 -197q-6 -11 -17 -11q-14 0 -20 8l-100 122q-5 5 -5 14zM2040 1100l11 -3l205 -100
q13 -7 13 -19q0 -15 -16 -21.5t-227 -59.5q-11 0 -17 8.5t-6 16.5l15 157q3 21 22 21zM1131 1560q0 8 6 15t16 7l11 -3l198 -115q11 -7 11 -22q0 -9 -9 -15l-122 -100q-5 -4 -13 -4q-18 0 -21 14l-75 216zM2060 785q62 0 118.5 -37.5t89 -100t32.5 -127.5
q0 -114 -80.5 -194.5t-194.5 -80.5q-43 0 -85 14q-32 -115 -127.5 -188.5t-217.5 -73.5t-217 72q-125 -102 -288 -102q-132 0 -242 70.5t-167 189.5l-20 -1h-20q-143 0 -242 99.5t-99 239.5q0 122 83.5 223t208.5 113q35 102 122 165.5t196 63.5l24 7q48 62 118.5 99.5
t155.5 37.5q43 0 80 -10q51 67 127 106t164 39q98 0 183 -49.5t134 -133.5t49 -182q0 -81 -33 -155q41 -51 55 -117q65 13 93 13zM2025 363q64 0 110.5 46t46.5 111q0 54 -36 100.5t-84 46.5q-26 0 -46.5 -6.5t-48.5 -6.5q-39 0 -72.5 27t-42.5 67q-14 57 -58 93.5
t-104 36.5q-29 0 -71 -18q-43 -18 -67 -18q-47 0 -80.5 31t-37.5 76q-8 88 -73.5 147.5t-152.5 59.5q-58 0 -98 -18.5t-91 -81.5q-35 -45 -97 -45l-12 1q-68 0 -126.5 -41t-80.5 -107q-23 -64 -111 -81q-66 -14 -120 -82t-54 -136q0 -93 66 -157.5t157 -64.5l52 2
q62 0 95 -67q43 -90 124.5 -141.5t177.5 -51.5q120 0 214 76q32 26 74 26q40 0 71 -23q66 -49 146 -49q79 0 144 49t87 127q11 35 42 60t72 25q22 0 42 -6.5t43 -6.5z" />
    <glyph glyph-name="uni26CE" unicode="&#x26ce;" 
d="M1830 472l-57 4v-277q0 -46 33 -79t79 -33h97v-295h-97q-109 0 -203.5 55t-149 149.5t-54.5 202.5v352l-360 93v-445q0 -46 33 -79t79 -33h97v-295h-97q-108 0 -202 53.5t-149.5 148.5t-55.5 205v522q-31 8 -63 8q-64 0 -98.5 -34.5t-34.5 -82.5q0 -50 36 -84l-204 -212
q-126 120 -126 296q0 108 56 204.5t149.5 152t199.5 55.5q47 0 85 -5v578h295v-648l360 -94v742h295v-821q32 -8 63 -8q59 0 98 33t39 85q0 47 -36 83l204 213q126 -124 126 -296q0 -116 -57.5 -211.5t-158.5 -149t-221 -53.5z" />
    <glyph glyph-name="uni26D4" unicode="&#x26d4;" 
d="M1300 1685q258 0 478 -128.5t348.5 -348.5t128.5 -478t-128.5 -478t-348.5 -348.5t-478 -128.5t-478 128.5t-348.5 348.5t-128.5 478t128.5 478t348.5 348.5t478 128.5zM2029 541v377h-1459v-377h1459z" />
    <glyph glyph-name="uni26EA" unicode="&#x26ea;" 
d="M2200 417v-101q0 -20 -15.5 -35.5t-35.5 -15.5q-7 0 -22 6l-52 26v-555q0 -20 -15 -34.5t-35 -14.5h-1451q-21 0 -35 14.5t-14 34.5v555l-52 -26q-15 -6 -24 -6q-20 0 -34.5 14.5t-14.5 36.5v101q0 32 26 44l540 284v53q0 13 4 22l255 556v317h-154v149h154v134h149v-134
h153v-149h-153v-317l256 -556l4 -22v-53l539 -284q27 -13 27 -44zM1301 142q64 0 107.5 -44.5t43.5 -104.5v-200h82v956h-468v-956h86v200q0 63 44.5 106t104.5 43zM625 -207h341v727l-341 -173v-554zM1974 347l-340 173v-727h340v554zM1452 305q0 -12 -9 -21t-21 -9h-240
q-12 0 -21 9t-9 21v170q0 63 44.5 106t104.5 43q63 0 107 -45t44 -104v-170zM1211 334h62v81h-62v-81zM1393 415h-61v-81h61v81zM1273 475v85q-27 -10 -44.5 -32.5t-17.5 -52.5h62zM1392 475q0 29 -17 52t-43 33v-85h60z" />
    <glyph glyph-name="uni26F2" unicode="&#x26f2;" 
d="M1817 565q36 0 60.5 -25.5t24.5 -58.5q0 -35 -25 -59t-60 -24q-29 -111 -110 -200.5t-203 -142.5q-39 -17 -39 -48q0 -20 16 -37.5t41 -26.5q38 -13 38 -51q0 -23 -17.5 -38.5t-43.5 -15.5h-403q-26 0 -44 15.5t-18 38.5q0 38 37 51q25 9 42 26.5t17 37.5q0 31 -41 48
q-117 50 -199 139t-112 204q-33 3 -55 27t-22 56q0 35 24.5 59.5t59.5 24.5h1032zM1000 677q0 28 19 47t46 19h478q26 0 45 -19t19 -47q0 -26 -19 -45t-45 -19h-478q-27 0 -46 19t-19 45zM1304 990q81 0 138.5 -57.5t57.5 -138.5h-393q0 81 57.5 138.5t139.5 57.5z
M1025 1171q-204 0 -319 -210l-23 -43q-44 -86 -101 -86q-26 0 -39.5 16t-13.5 39l1 38q0 25 -13 40t-36 15q-21 0 -34 -13.5t-25.5 -29.5t-27.5 -29.5t-39 -13.5q-19 0 -37 13t-18 39l7 63q0 17 -8.5 29t-25.5 12q-14 0 -26.5 -10t-25.5 -22t-26 -22t-28 -10q-22 0 -36 19.5
t-14 52.5q0 70 118.5 192t252.5 185.5t271 63.5q103 0 197.5 -36t162.5 -102t114.5 -158.5t46.5 -155.5q0 -16 -11 -16t-28 26l-28 38q-80 76 -188 76zM2482 1056q0 -30 -13 -50t-36 -20q-19 0 -54 32t-53 32q-17 0 -25.5 -12t-8.5 -29l7 -63q0 -26 -17.5 -39t-37.5 -13
q-24 0 -39 13.5t-27.5 29.5t-26 29.5t-33.5 13.5q-22 0 -35.5 -14t-13.5 -39l1 -40q0 -23 -13.5 -39t-39.5 -16q-29 0 -52.5 20.5t-47.5 66.5q-70 131 -154.5 191.5t-188.5 60.5q-108 0 -186 -76l-29 -38q-19 -26 -29 -26q-11 0 -11 16q0 50 44.5 144.5t116.5 164.5
t164.5 106.5t195.5 36.5q88 0 170 -25t156.5 -68.5t141 -102t120.5 -126.5t54 -121z" />
    <glyph glyph-name="uni26F3" unicode="&#x26f3;" 
d="M1963 115q101 0 171 -71t70 -171q0 -98 -70 -169.5t-171 -71.5t-171 71t-70 170t70.5 170.5t170.5 71.5zM955 -347q-217 0 -381 70t-253 204t-89 319q0 212 153 320.5t443 108.5q102 0 176.5 -9t132 -20t104 -20t91.5 -9q60 0 99.5 15t70 47t93.5 147l202 368q4 6 10.5 7
t16.5 3l300 648h243l-334 -728q8 -8 8 -18v-4l-239 -552q-54 -117 -124 -325q-72 -216 -168.5 -335t-236.5 -178t-318 -59zM1480 146q0 139 -137 215.5t-372 76.5q-143 0 -260 -42t-176.5 -116t-59.5 -174q0 -101 77.5 -191t186 -119.5t223.5 -30.5q144 0 259 51t187 141.5
t72 188.5z" />
    <glyph glyph-name="uni26F5" unicode="&#x26f5;" 
d="M2143 235q48 0 72 -24t24 -83t-19.5 -167t-42.5 -155h-1471q-90 57 -180 147l-39 38q-56 52 -91.5 103t-35.5 86q0 18 13.5 36.5t44.5 18.5h1725zM1159 374q107 235 107 589q0 392 -182 694v6q347 -79 574.5 -239t340 -413.5t112.5 -636.5h-952zM534 324
q110 596 502 1240h5l-16 -1190z" />
    <glyph glyph-name="uni26FA" unicode="&#x26fa;" 
d="M1359 1301q102 -15 192 -46.5t184.5 -87t180 -132t170 -185t151 -230.5t117 -259.5t50.5 -179.5q0 -38 -21.5 -68.5t-59.5 -42.5l-1072 -363q-23 -7 -39 -7q-22 0 -44 8l-898 364q-34 14 -54 42t-20 61q0 26 5 43q111 343 271.5 589.5t364.5 374.5t404 128v397
q0 25 17 42.5t42 17.5q20 0 35 -12t20 -29l29 -5l111 -19q500 -74 523 -84q33 -9 33 -32q0 -13 -12.5 -20.5t-23.5 -12.5q-62 -30 -331 -119l-325 -112v-21zM1240 1192q-117 0 -249.5 -61t-258 -188.5t-233.5 -324t-185 -437.5l138 -56q45 154 114.5 295t143.5 212.5
t146 71.5q177 0 177 -334q0 -176 -56 -456l176 -72q0 448 24 814.5t63 535.5zM2286 181q-81 242 -173.5 410t-207.5 294t-254.5 202t-292.5 95l-12 -75q-75 -403 -75 -1269z" />
    <glyph glyph-name="uni26FD" unicode="&#x26fd;" 
d="M2217 85q0 -130 -71.5 -211t-187.5 -81q-86 0 -145.5 29t-96 83.5t-54 143.5t-17.5 269q0 189 -28.5 300.5t-72.5 155.5v-1047h-1162v1648q0 121 87 208t208 87h574q119 0 206 -86t87 -209v-430q126 -45 188.5 -198.5t62.5 -426.5q0 -185 14.5 -251t49 -97t100.5 -31
q53 0 81.5 38t28.5 103q0 143 -35.5 362t-79.5 371l-15 -1h-15q-96 0 -144 33.5t-73 105t-25 182.5q0 130 107 168q74 26 87 37q4 10 4 23q0 99 -104 225l-20 21q-41 41 -41 72q0 25 21.5 46t55.5 21q43 0 90.5 -50.5t85.5 -116t67.5 -144t57.5 -197.5l13 -49
q42 -145 42 -224q0 -93 -49 -118q27 -90 50.5 -206.5t45.5 -273.5t22 -284zM1776 1104q0 -86 27 -130t75 -44q46 0 46 56q0 38 -19 90.5t-36.5 68t-39.5 15.5q-20 0 -36.5 -14.5t-16.5 -41.5zM1351 1304h-774v-358h774v358z" />
    <glyph glyph-name="uni2702" unicode="&#x2702;" 
d="M2258 -238q0 -58 -37 -96t-87 -38q-116 0 -148 53q-26 41 -42.5 53.5t-45.5 18.5t-60 6l-57 -1q-54 0 -108.5 27.5t-95 75t-68.5 117t-28 168.5q0 45 4.5 80t4.5 69q0 55 -29 90t-97 65q-16 7 -30 15.5t-94 74.5l-67 -55q-19 -15 -41 -25q-82 -36 -113 -73.5t-31 -91.5
q0 -34 4.5 -70t4.5 -87q0 -111 -44.5 -201t-127.5 -140t-188 -50q-144 0 -219.5 82t-75.5 213q0 78 31 138q48 95 124 151t229 101q42 12 61 36t29 54q23 71 78 116q71 57 103.5 92t65.5 79q-112 228 -195.5 497t-83.5 381q0 43 8 77.5t20 34.5q10 0 33 -44l28 -54
q273 -450 367 -611q94 161 367 611l11 20q36 78 49 78t21 -33.5t8 -78.5q0 -111 -87 -388t-193 -490q59 -79 107 -119l62 -52q47 -39 67 -88q25 -64 44 -85.5t57 -32.5q105 -31 166 -62t105 -74t76.5 -103.5t32.5 -135.5q0 -41 -7 -84t-7 -82q0 -33 35 -45l21 -5l22 -2
q61 -6 61 -77zM871 124q0 69 -39.5 113t-102.5 44q-65 0 -118 -33t-84 -89.5t-31 -115.5q0 -73 43 -117.5t114 -44.5q61 0 115.5 34.5t78.5 91.5t24 117zM1245 832q-18 0 -31.5 -11.5t-13.5 -33.5q0 -20 12.5 -36t32.5 -16q26 0 38.5 15.5t12.5 32.5q0 18 -13.5 33.5
t-37.5 15.5zM1993 61q0 54 -36 105t-93.5 83t-112.5 32q-65 0 -104 -45.5t-39 -111.5q0 -101 56.5 -175.5t134.5 -74.5q67 0 131 36q25 15 44 60.5t19 90.5z" />
    <glyph glyph-name="uni2705" unicode="&#x2705;" 
d="M1056 150l-608 606l152 152l456 -452l943 951l152 -152z" />
    <glyph glyph-name="uni2708" unicode="&#x2708;" 
d="M2324 819q0 -32 -44 -66q31 -45 53.5 -96t22.5 -83q0 -48 -46 -48q-70 0 -202 138q-175 -75 -415 -131q94 -275 126 -410.5t32 -218.5q0 -178 -137 -178q-83 0 -185 83t-218.5 252t-219.5 389q-77 -5 -172 -5q-212 0 -372.5 33.5t-247.5 94t-87 136.5q0 37 23 71.5t64 66
t95.5 57t63.5 25.5q12 -97 111.5 -181t140.5 -84q17 0 47.5 32t30.5 46q0 28 -41 48l-18 11q-145 101 -158 236q123 77 296 77q-18 112 -18 211q0 191 63 307.5t169 116.5q99 0 217.5 -184.5t229.5 -520.5q242 -43 537 -107q164 179 270 179q21 0 36.5 -10.5t15.5 -33.5
q0 -20 -17.5 -60.5t-76.5 -139.5q31 -26 31 -53zM943 704q0 19 -14.5 28t-31.5 9q-25 0 -46.5 -29t-21.5 -53q0 -40 45 -40q24 0 35.5 13t22.5 38t11 34zM973 642q0 -14 8.5 -23.5t24.5 -9.5q28 0 51 26.5t23 53.5q0 38 -40 38q-24 0 -45.5 -27t-21.5 -58z" />
    <glyph glyph-name="uni2709" unicode="&#x2709;" 
d="M1299 593l793 394v-829h-1585v829zM2092 1334v-221l-793 -393l-792 393v221h1585z" />
    <glyph glyph-name="uni270A" unicode="&#x270a;" 
d="M2285 723q0 -181 -71 -342t-197 -273t-308.5 -172.5t-408.5 -60.5q-204 0 -375.5 65t-300.5 197t-183 301l-51 156q-41 115 -58 190t-17 152q0 140 70.5 221.5t195.5 81.5q23 0 38 3.5t23 26.5q32 84 96.5 127.5t153.5 43.5q39 0 69.5 -8t50.5 -8q26 0 43 24
q42 67 101 99.5t125 32.5q84 0 158 -49q13 -9 20 -9q11 0 27 14q88 77 206 77q97 0 175.5 -61t101.5 -156l12 -76q9 -84 21.5 -122.5t34.5 -45.5q79 -26 143 -94.5t84.5 -152t20.5 -182.5zM1679 1473q-57 0 -93.5 -46t-36.5 -110q0 -48 10 -150q28 7 93 7q89 0 201 -16
l-5 160q-2 71 -46.5 113t-122.5 42zM1284 1443q-66 0 -100.5 -35t-34.5 -98l1 -14q44 -287 76.5 -406t126.5 -119q22 0 37 5t39 26q-63 55 -63 160q0 73 23 116t70 66l-19 159q-9 65 -50 102.5t-106 37.5zM900 1313q-68 0 -104 -42.5t-36 -108.5q0 -43 54 -205.5t75 -197.5
q38 -68 112 -68q49 0 86.5 30.5t37.5 75.5l-3 25l-80 374q-13 62 -53.5 89.5t-88.5 27.5zM649 585q54 0 93.5 30t39.5 74l-4 30l-89 292q-31 97 -125 97q-62 0 -96 -38.5t-34 -109.5q0 -33 21.5 -94.5t49 -126.5t45.5 -97.5t43 -44.5t56 -12zM1303 7q244 0 430 85
t292.5 251.5t106.5 375.5q0 95 -22 168t-97.5 121t-148.5 48l-99 11q-74 10 -125 10q-180 0 -180 -126q0 -50 33 -91t100.5 -69t124.5 -28l16 2q-7 -14 -17.5 -72.5t-10.5 -90.5l-49 -14q-131 -37 -210 -88q-39 -26 -88 -79q-37 -41 -59 -41q-33 0 -33 34q0 35 31 102t51 94
l3 7q0 7 -12.5 9.5t-30 5.5t-36.5 7.5t-32 16.5q-63 -60 -104 -80.5t-77 -20.5q-39 0 -86 13t-64 27q-12 -43 -56 -78t-83 -35q-31 0 -60 4.5t-51 4.5q-45 0 -45 -48q0 -84 100.5 -199.5t252.5 -176t335 -60.5z" />
    <glyph glyph-name="uni270B" unicode="&#x270b;" 
d="M2136 922q116 0 199 -85t83 -207q0 -109 -75 -196l-33 -42q-134 -179 -199 -251l-66 -76q-89 -104 -164 -183t-159 -134.5t-177.5 -83.5t-199.5 -28q-294 0 -508 153.5t-289 414.5q-61 215 -111 328q-210 433 -236 505q-20 57 -20 119q0 80 36 146.5t101 103.5t155 37
q7 118 82.5 194.5t196.5 76.5q46 0 91 -14q32 83 99 131.5t154 48.5q111 0 193 -67q77 83 203 83q122 0 201.5 -79t86.5 -204q11 -222 15 -595q3 -279 27 -279q6 0 17 14q72 92 142.5 130.5t154.5 38.5zM1099 1724q-57 0 -90.5 -45t-33.5 -118q0 -38 61 -287t92 -348
q61 16 202 28l-97 652q-7 52 -45 85t-89 33zM752 1556q-60 0 -92 -38t-32 -107q0 -22 4 -38l48 -138l158 -439q96 65 201 103l-134 472l-24 87q-14 52 -50.5 75t-78.5 23zM2262 630q0 53 -37.5 94.5t-85.5 41.5q-64 0 -105 -31.5t-209 -258.5q-38 -44 -71 -57t-65 -13l-81 4
q-46 0 -100 -23q-11 -5 -24 -5q-11 0 -22.5 7t-11.5 21q0 26 62.5 53t103.5 29q28 0 41 15.5t13 50.5q0 67 -9 140t-17 136q0 277 -20 770q-3 64 -39 100t-100 36q-56 0 -89.5 -43t-33.5 -109q0 -37 21 -292.5t34 -351.5l26 -5l17 -4q20 -5 36.5 -14.5t16.5 -20.5
q0 -13 -20.5 -21.5t-44.5 -8.5q-354 -38 -667 -203q-30 -19 -41 -19q-22 0 -22 21q0 23 51 74q-48 112 -108 265t-73 192q-18 45 -53 66t-73 21q-55 0 -89.5 -35t-34.5 -96q0 -37 11 -68q44 -110 186 -399l56 -117q15 -32 41.5 -107.5t45.5 -147.5q69 -251 230.5 -373.5
t427.5 -122.5q268 0 429 165q74 81 117 147l26 31l110 121l65 81l141 171q38 44 38 93z" />
    <glyph glyph-name="uni270C" unicode="&#x270c;" 
d="M2101 252q0 -209 -190 -404q-108 -110 -268 -167.5t-347 -57.5q-144 0 -258.5 27t-184 76t-121 134.5t-76.5 195.5q-99 142 -142.5 242.5t-43.5 189.5q0 100 73.5 172t181.5 77q4 71 34.5 118t76 72t89.5 25q-54 163 -102 273q-27 63 -49 160t-22 163q0 132 79.5 213
t208.5 81q96 0 166.5 -50.5t117.5 -158t86 -319.5q28 -158 36.5 -188.5t15.5 -30.5q5 0 11.5 38t11.5 79l4 34q7 49 11 104q15 246 102 360.5t220 114.5q97 0 166.5 -38.5t105.5 -104.5t36 -147q0 -156 -72 -372q-30 -88 -60 -176.5t-50 -176.5q-9 -37 -19.5 -72t-10.5 -66
q0 -42 30 -72q52 -52 81 -99.5t50.5 -110.5t21.5 -138zM903 1518q0 -47 22.5 -131.5t70 -208.5t79.5 -194q44 -92 55 -145q9 -39 25.5 -79.5t29.5 -40.5q8 0 25 10q90 55 186 55q51 0 109.5 -12t134.5 -40t120 -47q7 10 24 96q19 101 28 128q19 50 63.5 184t75.5 247t31 180
q0 71 -40.5 114t-103.5 43q-75 0 -118 -59t-75 -208q-18 -85 -41 -281q-17 -140 -32 -188.5t-39 -73t-62 -24.5t-61.5 19.5t-40.5 62.5t-49 197q-74 356 -123.5 459.5t-130.5 103.5q-163 0 -163 -167zM849 678q0 -28 18.5 -76t59.5 -135t65 -126t47.5 -51.5t52.5 -12.5
q44 0 76.5 29t32.5 66q0 16 -5 31l-107 312q-30 87 -116 87q-27 0 -58.5 -11.5t-48.5 -42t-17 -70.5zM799 151q44 0 82 27t38 66q0 15 -8 36l-75 176l-29 65q-31 72 -104 72q-52 0 -81.5 -30t-29.5 -87q0 -38 11 -63q13 -37 65.5 -131.5t74.5 -112.5t56 -18zM1958 270
q0 78 -44 148t-122.5 123.5t-186.5 89t-187 35.5q-70 0 -120 -37.5t-50 -98.5q0 -63 60.5 -109.5t155.5 -74.5q94 -29 139.5 -60.5t45.5 -74.5q0 -37 -17 -37q-9 0 -29 9q-112 49 -171 49q-71 0 -116.5 -61t-45.5 -152l1 -46q0 -37 -12 -37q-22 0 -40 57t-18 106
q0 51 13 100q-23 -23 -56.5 -37t-67.5 -14q-45 0 -80 21q-47 -69 -82.5 -89t-98.5 -24q19 -89 34 -119q42 -81 152 -126t260 -45q176 0 331.5 64.5t253.5 177t98 262.5z" />
    <glyph glyph-name="uni270F" unicode="&#x270f;" 
d="M2425 1247q0 -189 -73 -256l-1112 -1007q-37 -32 -50 -38.5t-87.5 -30t-225.5 -68t-255.5 -74t-232.5 -62t-156 -34.5q-27 0 -42 17.5t-15 45.5q0 37 48 185l203 632q17 52 51 91t85 85l1082 992q83 77 297 77q110 0 196 -86l50 -48l106 -98q54 -49 95 -100
q36 -48 36 -223zM2288 1146q0 45 -7 90t-10 93l-1131 -1037q15 -65 15 -212l1070 973q21 20 42 44t21 49zM1911 1661q-97 -6 -123 -11.5t-45 -16.5t-46.5 -36t-1054.5 -966q35 -5 75 -5.5t76 -12.5zM839 562v-37l7 -148q0 -8 31 -14t65 -6q63 0 144 -21l1155 1058
q-157 162 -252 246zM573 518h-13l-170 -511q68 -35 115 -113l537 132q3 32 3 95q0 86 -10 96q-22 19 -122 19q-82 0 -119 15.5t-46 44.5q-5 15 -16 107q-11 88 -14 96q-7 10 -54 14.5t-91 4.5z" />
    <glyph glyph-name="uni2712" unicode="&#x2712;" 
d="M2425 1623q0 -79 -42 -174q-31 19 -54 35t-96.5 81t-140.5 143.5t-85 115.5q97 43 174 43q101 0 172.5 -70.5t71.5 -173.5zM2248 1408q47 -38 86 -55q-83 -138 -222 -277l-355 -355q-4 -4 -13 -4q-37 0 -122 65zM1501 884q-105 102 -165.5 184t-60.5 118q0 9 6 13
l353 354q132 132 278 222q43 -94 214 -265zM1542 702l28 -19q63 -45 94 -45q9 0 13 4v-2l-74 -74q-6 -5 -14 -5q-14 0 -34 10l-484 -484q-4 -4 -12 -4q-28 0 -85 41q-8 -22 -10 -45q-9 -101 -81 -210q-55 -81 -183.5 -138t-284.5 -76q-54 -6 -126 -21l-81 -16q-11 0 -21.5 6
t-10.5 20l5 26q28 141 34 185q15 152 74 283t139 186q102 68 208 80q23 2 47 10q-41 57 -41 87l4 12l484 482q-10 22 -10 35q0 7 6 13l72 74l2 -1l-2 -11q0 -37 60 -116.5t164 -183.5l-65 -65l121 -102zM900 180q-77 63 -161 160q-34 -16 -59 -19q-72 -10 -109 -23
t-86.5 -44.5t-87 -98t-63.5 -165t-38 -207.5l206 207q-8 19 -8 39q0 40 28 67t65 27q39 0 67 -28.5t28 -66.5q0 -37 -28 -65t-65 -28q-21 0 -40 8l-207 -207l33 5q140 13 266 63t172.5 122.5t55.5 129.5q11 77 31 124z" />
    <glyph glyph-name="uni2714" unicode="&#x2714;" 
d="M1057 149l-608 606l152 152l456 -452l943 951l152 -152z" />
    <glyph glyph-name="uni2716" unicode="&#x2716;" 
d="M2037 220q0 -24 -16 -40l-169 -167q-20 -18 -40 -18q-24 0 -39 18l-473 472l-473 -472q-16 -18 -41 -18t-39 18l-168 167q-16 16 -16 40q0 23 16 39l473 473l-473 473q-16 16 -16 39q0 24 16 40l168 169q15 16 39 16q23 0 41 -16l473 -473l473 473q16 16 39 16
q24 0 40 -16l169 -169q16 -16 16 -40q0 -23 -16 -39l-474 -473l474 -473q16 -16 16 -39z" />
    <glyph glyph-name="uni2728" unicode="&#x2728;" 
d="M908 236q-74 194 -153 316t-191 234t-270 206l-112 67l112 68q157 93 272.5 207.5t196.5 241t147 307.5q67 -184 148 -311.5t195 -240t269 -204.5l114 -68l-114 -67q-156 -93 -270.5 -207t-195.5 -240t-148 -309zM479 1059q266 -192 429 -453q162 260 430 453
q-263 186 -430 454q-167 -269 -429 -454zM2418 584l-126 -62q-101 -49 -174.5 -109t-124.5 -127.5t-101 -182.5q-61 151 -157 249t-242 170l-125 62l125 62q140 68 236.5 167.5t163.5 251.5q65 -151 160 -249.5t239 -169.5zM1893 377q91 118 230 207q-139 89 -230 207
q-95 -120 -231 -207q136 -87 231 -207zM1295 553q62 -181 138.5 -281t192.5 -172l95 -58l-95 -59q-82 -51 -142 -113t-103 -138t-86 -203q-61 178 -137.5 279t-194.5 175l-95 59l95 58q115 72 193 174t139 279zM1295 -149q76 110 175 191q-103 83 -175 189
q-71 -106 -177 -189q101 -81 177 -191z" />
    <glyph glyph-name="uni2733" unicode="&#x2733;" 
d="M2165 850q90 0 140.5 -33.5t50.5 -99.5q0 -65 -50.5 -99t-140.5 -34q-28 0 -289.5 28t-442.5 50l104 -82q403 -320 469 -379q78 -78 78 -148q0 -52 -37 -86t-84 -34q-70 0 -146 78q-87 97 -462 573l16 -132q62 -541 62 -599q0 -89 -33.5 -141.5t-99.5 -52.5
q-65 0 -99 52.5t-34 141.5q0 25 26 267t52 464l-83 -104q-341 -430 -380 -469q-78 -78 -146 -78q-49 0 -84 37t-35 84q0 69 78 147q19 19 223 183t349 278q-150 -18 -252.5 -29.5t-278.5 -30t-200 -18.5q-90 0 -141.5 33.5t-51.5 99.5q0 67 51.5 100t141.5 33q25 0 267 -26
t464 -52l-104 83q-427 337 -468 378q-78 76 -78 147q0 45 33.5 83t83.5 38q70 0 148 -78q38 -38 286 -350l177 -223l-15 133q-63 540 -63 598q0 90 33.5 142t99.5 52t99.5 -52t33.5 -142q0 -25 -26 -267t-52 -464l83 104q320 403 379 469q76 78 148 78q48 0 83.5 -35.5
t35.5 -85.5q0 -69 -78 -147q-27 -24 -180 -148.5t-393 -312.5q187 23 443.5 50.5t288.5 27.5z" />
    <glyph glyph-name="uni2734" unicode="&#x2734;" 
d="M2410 745q0 -11 -8 -18.5t-18 -7.5q-226 0 -432.5 -24.5t-362.5 -70.5q176 -309 495 -628q8 -8 8 -18q0 -8 -7 -16.5t-19 -8.5q-9 0 -18 7q-318 318 -629 495q-93 -336 -93 -794q0 -11 -7.5 -18.5t-18.5 -7.5t-18.5 7.5t-7.5 18.5q0 469 -95 794q-309 -176 -628 -495
q-9 -7 -18 -7q-11 0 -18 7t-7 18t7 18q319 319 495 628q-325 95 -794 95q-11 0 -18.5 7.5t-7.5 18.5t7.5 18.5t18.5 7.5q469 0 794 95q-174 306 -495 627q-7 7 -7 18t7 18.5t18 7.5q6 0 18 -7q319 -319 628 -495q95 320 95 794q0 10 7.5 18t18.5 8t18.5 -8t7.5 -18
q0 -463 93 -794q311 177 629 495q9 7 18 7q11 0 18.5 -7.5t7.5 -18.5q0 -10 -8 -18q-321 -321 -495 -627q155 -46 360 -70.5t435 -24.5q10 0 18 -7.5t8 -18.5z" />
    <glyph glyph-name="uni2744" unicode="&#x2744;" 
d="M2291 797q9 0 15.5 -6t6.5 -16v-93q0 -9 -6.5 -15.5t-15.5 -6.5h-215l168 -168q7 -7 7 -17q0 -8 -7 -15l-66 -65q-6 -7 -15 -7t-16 7l-266 265h-415l293 -293h377q22 0 22 -23v-92q0 -9 -6.5 -15.5t-15.5 -6.5h-238l152 -152q5 -6 5 -16q0 -12 -5 -15l-66 -66
q-4 -7 -17 -7q-10 0 -15 7l-152 152v-240q0 -8 -7 -15t-15 -7h-93q-9 0 -16 6.5t-7 15.5v377l-293 293v-415l265 -266q6 -6 6 -16t-6 -15l-65 -66q-7 -7 -15 -7q-10 0 -17 7l-168 168v-215q0 -9 -6.5 -15.5t-15.5 -6.5h-93q-10 0 -16 6.5t-6 15.5v215l-170 -168
q-7 -7 -15 -7q-12 0 -15 7l-67 66q-7 6 -7 15t7 16l267 266v415l-295 -293v-377q0 -9 -6 -15.5t-16 -6.5h-93q-9 0 -15.5 7t-6.5 15v240l-152 -152q-6 -7 -16 -7t-15 7l-66 66q-7 5 -7 15t7 16l152 152h-240q-22 0 -22 22v92q0 23 22 23h377l293 293h-415l-266 -265
q-6 -7 -15 -7t-16 7l-66 65q-7 7 -7 15q0 10 7 17l170 168h-217q-9 0 -15.5 6.5t-6.5 15.5v93q0 10 6.5 16t15.5 6h217l-170 170q-7 7 -7 15q0 10 7 17l66 65q5 6 15 6q11 0 16 -6l266 -267h415l-293 295h-377q-8 0 -15 7t-7 15v93q0 9 6.5 15.5t15.5 6.5h240l-152 152
q-7 5 -7 16q0 10 7 15l66 66q7 7 15 7q9 0 16 -7l152 -152v240q0 8 6.5 15t15.5 7h93q10 0 16 -6.5t6 -15.5v-377l295 -293v415l-267 266q-7 6 -7 16q0 9 7 15l67 66q3 6 13 6q11 0 17 -6l170 -168v215q0 9 6 15.5t16 6.5h93q9 0 15.5 -6.5t6.5 -15.5v-215l168 168q7 7 17 7
q8 0 15 -7l65 -66q6 -5 6 -15q0 -11 -6 -16l-265 -266v-415l293 293v377q0 9 7 15.5t16 6.5h93q8 0 15 -7t7 -15v-240l152 152q7 7 15 7q5 0 17 -7l66 -66q5 -3 5 -15q0 -11 -5 -16l-152 -152h238q22 0 22 -22v-93q0 -10 -6.5 -16t-15.5 -6h-377l-293 -295h415l266 267
q5 6 16 6q10 0 15 -6l66 -65q7 -7 7 -17q0 -8 -7 -15l-168 -170h215z" />
    <glyph glyph-name="uni2747" unicode="&#x2747;" 
d="M1163 722q0 56 44.5 97.5t103.5 41.5q61 0 103 -41t42 -102q0 -64 -43.5 -105t-101.5 -41q-64 0 -106 45t-42 105zM1103 1535q0 139 51 214.5t147 75.5q88 0 141.5 -79t53.5 -207q0 -131 -39 -319t-72.5 -245t-79.5 -57q-35 0 -57.5 32t-36 61t-27.5 70.5t-33.5 122
t-32.5 165t-15 166.5zM1496 -89q0 -127 -52 -206.5t-143 -79.5q-96 0 -147 75.5t-51 214.5q0 57 7.5 116t18 114t22.5 101t20 78q25 98 60 153t74 55q78 0 134.5 -213t56.5 -408zM2110 921q137 0 213.5 -52t76.5 -145q0 -90 -80 -143t-210 -53q-131 0 -269 28
q-177 39 -235 59t-86 45t-28 58q0 49 78 87.5t247 77t293 38.5zM1105 718q0 -32 -39 -61t-126 -56.5t-207.5 -50t-242.5 -22.5q-128 0 -209 52.5t-81 141.5q0 98 74 148.5t215 50.5q71 0 164 -14t190.5 -40t147 -45t82 -43t32.5 -61zM1619 978q-14 0 -22.5 10t-8.5 22
q0 10 5 18q33 49 190.5 266.5t182.5 242.5q61 61 124 61q47 0 81.5 -35t34.5 -79q0 -21 -8 -42t-22 -41t-32 -39t-187 -143.5t-246.5 -181t-81 -58t-10.5 -1.5zM394 1485q0 44 34.5 78.5t79.5 34.5q46 0 75 -19.5t51 -41.5q18 -18 122.5 -162t225.5 -312l25 -35q5 -10 5 -18
q0 -12 -9.5 -22t-21.5 -10q-9 0 -15.5 4.5t-110.5 80.5t-202 148.5t-148.5 111.5t-68.5 60.5t-30 50t-12 51.5zM2206 -34q0 -45 -35 -78.5t-81 -33.5q-65 0 -124 59q-13 13 -78 101t-138 188t-157 220q-5 7 -5 18q0 12 9.5 22t21.5 10q9 0 18 -7l35 -25q8 -6 17.5 -12.5
t20 -14.5t22 -16.5t93 -68t142 -104.5t100.5 -75t60.5 -46.5t40 -42t31 -55.5t7.5 -39zM981 472q12 0 21.5 -10t9.5 -22q0 -8 -5 -18l-25 -34q-52 -74 -155.5 -217t-146.5 -200t-59 -70t-36.5 -25t-39 -17t-37.5 -5q-45 0 -79.5 34t-34.5 77q0 27 16 60t47 64
q12 12 106.5 83t168 124.5t149 109t85 61t15.5 5.5z" />
    <glyph glyph-name="uni274C" unicode="&#x274c;" 
d="M2037 220q0 -24 -16 -40l-169 -167q-20 -18 -40 -18q-24 0 -39 18l-473 472l-473 -472q-16 -18 -41 -18t-39 18l-168 167q-16 16 -16 40q0 23 16 39l473 473l-473 473q-16 16 -16 39q0 24 16 40l168 169q15 16 39 16q23 0 41 -16l473 -473l473 473q16 16 39 16
q24 0 40 -16l169 -169q16 -16 16 -40q0 -23 -16 -39l-474 -473l474 -473q16 -16 16 -39z" />
    <glyph glyph-name="uni274E" unicode="&#x274e;" 
d="M2248 1738q23 0 40 -17.5t17 -41.5v-1893q0 -23 -17 -40t-40 -17h-1893q-24 0 -41.5 17t-17.5 40v1893q0 24 17.5 41.5t41.5 17.5h1893zM1548 733l474 472q16 16 16 40t-16 40l-169 168q-17 17 -39 17q-23 0 -40 -17l-473 -472l-472 472q-20 17 -42 17t-39 -17l-167 -168
q-17 -17 -17 -40t17 -40l472 -472l-472 -473q-17 -17 -17 -40q0 -22 17 -39l167 -169q16 -16 39 -16t42 16l472 474l473 -474q16 -16 40 -16q23 0 39 16l169 169q16 16 16 39q0 24 -16 40z" />
    <glyph glyph-name="uni2753" unicode="&#x2753;" 
d="M1077 447v86q0 112 48.5 196.5t160.5 173.5q85 66 117 102t47 74.5t15 90.5q0 66 -45.5 109.5t-137.5 43.5q-80 0 -173.5 -34t-191.5 -82l-120 258q134 74 260.5 110t228.5 36q243 0 379.5 -114t136.5 -311q0 -85 -23 -151.5t-68.5 -124t-166.5 -155.5
q-106 -84 -132.5 -126.5t-26.5 -112.5v-69h-308zM1039 47q0 94 51.5 146t154.5 52q97 0 150 -52t53 -146q0 -95 -55.5 -147t-147.5 -52q-98 0 -152 52t-54 147z" />
    <glyph glyph-name="uni2754" unicode="&#x2754;" 
d="M1252 -188q-115 0 -181 63t-66 176q0 112 64.5 174.5t179.5 62.5q114 0 179.5 -61.5t65.5 -175.5q0 -110 -65 -174.5t-177 -64.5zM1252 210q-167 0 -167 -159q0 -77 41.5 -119t122.5 -42q79 0 122.5 42t43.5 119q0 159 -163 159zM1431 410h-387v126q0 120 50.5 210.5
t175.5 190.5q108 87 134.5 128.5t26.5 108.5q0 50 -33.5 82t-108.5 32q-76 -2 -168.5 -35t-215.5 -95l-152 326q158 89 290.5 129.5t249.5 40.5q255 0 405 -123.5t150 -339.5q0 -138 -58.5 -239.5t-215.5 -223.5q-63 -50 -91.5 -79.5t-40 -54t-11.5 -75.5v-109zM1123 489
h229v30q0 83 33.5 134.5t140.5 135.5q115 93 158.5 147t63.5 114.5t20 140.5q0 183 -126 283t-349 100q-104 0 -220 -34t-217 -88l86 -189q97 45 183 74t164 29q101 0 160.5 -51t59.5 -141q0 -60 -16 -104.5t-50.5 -84.5t-124.5 -110q-107 -82 -151 -159t-44 -180v-47z" />
    <glyph glyph-name="uni2755" unicode="&#x2755;" 
d="M1173 535q-22 0 -38.5 15.5t-18.5 35.5l-68 993q0 26 17 42t39 16h392q25 0 40.5 -18t15.5 -40l-68 -993q-2 -20 -19 -35.5t-39 -15.5h-253zM1193 615h212l66 942h-344zM1301 -184q-114 0 -179.5 62.5t-65.5 176.5q0 115 66 176t177 61q113 0 179 -63t66 -174
q0 -110 -65.5 -174.5t-177.5 -64.5zM1301 212q-167 0 -167 -157q0 -161 165 -161q82 0 124.5 42t42.5 119q0 157 -165 157z" />
    <glyph glyph-name="uni2757" unicode="&#x2757;" 
d="M1173 578q-6 0 -11.5 4t-5.5 10l-70 993q0 5 5 10t13 5h392q5 0 11 -4.5t6 -10.5l-69 -993q-2 -14 -18 -14h-253zM1095 56q0 101 54 150t153 49q98 0 150 -52.5t52 -146.5t-52.5 -145.5t-149.5 -51.5q-99 0 -153 51.5t-54 145.5z" />
    <glyph glyph-name="uni2764" unicode="&#x2764;" 
d="M1785 1544q141 0 263 -64.5t193 -177.5t71 -243q0 -143 -55 -264t-163.5 -222.5t-341.5 -247.5q-163 -103 -262 -190t-153 -180q-13 -27 -38 -27t-39 30q-54 92 -154.5 180t-260.5 188q-222 139 -332.5 240.5t-167.5 225t-57 267.5q0 129 71 242.5t192.5 178t262.5 64.5
q159 0 291 -79.5t195 -216.5q62 136 193 216t292 80z" />
    <glyph glyph-name="uni2795" unicode="&#x2795;" 
d="M2200 613q0 -24 -16.5 -40t-39.5 -16h-614q-23 0 -39.5 -16.5t-16.5 -39.5v-613q0 -23 -16.5 -40t-39.5 -17h-237q-24 0 -40 17t-16 40v613q0 23 -16.5 39.5t-40.5 16.5h-612q-23 0 -39.5 16t-16.5 40v237q0 24 16.5 40t39.5 16h612q24 0 40.5 16.5t16.5 39.5v613
q0 23 16 40t40 17h237q23 0 39.5 -17t16.5 -40v-613q0 -23 16.5 -39.5t39.5 -16.5h614q23 0 39.5 -16t16.5 -40v-237z" />
    <glyph glyph-name="uni2796" unicode="&#x2796;" 
d="M2144 908q23 0 39.5 -16.5t16.5 -39.5v-237q0 -24 -16.5 -40t-39.5 -16h-1688q-23 0 -39.5 16t-16.5 40v237q0 23 16.5 39.5t39.5 16.5h1688z" />
    <glyph glyph-name="uni2797" unicode="&#x2797;" 
d="M1300 1181q-89 0 -152.5 63.5t-63.5 154.5q0 89 63 153.5t153 64.5q92 0 155 -64.5t63 -153.5q0 -91 -63.5 -154.5t-154.5 -63.5zM1300 285q89 0 153.5 -64t64.5 -154q0 -89 -63 -153.5t-155 -64.5q-90 0 -153 64.5t-63 153.5q0 91 64.5 154.5t151.5 63.5zM2144 907
q23 0 39.5 -16.5t16.5 -39.5v-237q0 -23 -16.5 -39.5t-39.5 -16.5h-1688q-23 0 -39.5 16.5t-16.5 39.5v237q0 23 16.5 39.5t39.5 16.5h1688z" />
    <glyph glyph-name="uni27A1" unicode="&#x27a1;" 
d="M2147 732l-877 -643v402h-818v479h818v406z" />
    <glyph glyph-name="uni27B0" unicode="&#x27b0;" 
d="M1300 1299q266 101 556 101q222 0 431 -56v-277q-6 6 -80.5 24.5t-162.5 30.5t-189 12q-135 0 -247 -22q211 -195 211 -490q0 -157 -64 -281t-182.5 -192t-270.5 -68q-153 0 -272 67t-184 191t-65 283q0 292 210 490q-112 22 -247 22q-94 0 -173 -10t-136 -22.5
t-89.5 -23t-33.5 -11.5v277q212 56 431 56q293 0 557 -101zM1299 345q117 0 186.5 73.5t69.5 202.5q0 255 -255 389q-256 -134 -256 -388q0 -126 69.5 -201.5t185.5 -75.5z" />
    <glyph glyph-name="uni27BF" unicode="&#x27bf;" 
d="M1845 1254q247 94 526 94h38l35 -1v-256l-35 1h-35q-129 0 -236 -22q202 -190 202 -470q0 -147 -64 -267t-179 -185.5t-256 -65.5q-143 0 -257.5 66t-178.5 185t-64 269q0 291 218 483q-119 34 -259 34t-259 -34q218 -197 218 -488q0 -145 -63.5 -264t-177 -185
t-256.5 -66q-144 0 -259.5 66t-179 184.5t-63.5 267.5q0 280 202 470q-107 22 -237 22h-35l-34 -1v256l36 1h37q279 0 524 -94q275 122 547 122q278 0 545 -122zM757 337q114 0 180 69t66 196q0 242 -244 369q-244 -125 -244 -369q0 -121 64.5 -193t177.5 -72zM1838 337
q114 0 180 69t66 196q0 242 -244 369q-244 -125 -244 -369q0 -121 64.5 -193t177.5 -72z" />
    <glyph glyph-name="uni2934" unicode="&#x2934;" 
d="M848 174q-106 0 -199 31v405q34 -19 83 -33t96 -14q76 0 144.5 43.5t110.5 120.5l89 162l-453 247l958 289l274 -961l-452 246l-87 -161q-100 -182 -241.5 -278.5t-322.5 -96.5z" />
    <glyph glyph-name="uni2935" unicode="&#x2935;" 
d="M1488 707h513l-700 -711l-701 711h515v185q0 92 -46 167t-123.5 109.5t-155.5 34.5l192 356q151 -29 270.5 -122t177.5 -232.5t58 -313.5v-184z" />
    <glyph glyph-name="uni2B05" unicode="&#x2b05;" 
d="M1329 1376v-406h818v-479h-818v-402l-877 643z" />
    <glyph glyph-name="uni2B06" unicode="&#x2b06;" 
d="M1943 702h-406v-818h-479v818h-402l643 877z" />
    <glyph glyph-name="uni2B07" unicode="&#x2b07;" 
d="M1299 -115l-643 877h402v818h479v-818h406z" />
    <glyph glyph-name="uni2B1B" unicode="&#x2b1b;" 
d="M2426 1924q24 0 40 -16t16 -40v-2255q0 -23 -16 -38.5t-40 -15.5h-2255q-23 0 -38.5 15.5t-15.5 38.5v2255q0 24 15.5 40t38.5 16h2255z" />
    <glyph glyph-name="uni2B1C" unicode="&#x2b1c;" 
d="M2426 1925q23 0 39.5 -16t16.5 -40v-2255q0 -23 -16.5 -38.5t-39.5 -15.5h-2255q-23 0 -38.5 15.5t-15.5 38.5v2255q0 24 15.5 40t38.5 16h2255zM2344 1787h-2090v-2090h2090v2090z" />
    <glyph glyph-name="uni2B50" unicode="&#x2b50;" 
d="M2181 989v-7q0 -19 -15 -36l-444 -368l140 -569l1 -11q0 -17 -14 -31t-31 -14q-14 0 -25 8l-492 311l-493 -311q-11 -8 -24 -8q-18 0 -32 13.5t-14 31.5l2 11l139 569l-443 368q-17 15 -17 36q0 19 12.5 30.5t30.5 14.5l579 47l218 531q11 29 42 29t41 -29l220 -531
l579 -47q18 -2 29 -14t11 -24zM1851 891l-400 32l-150 366l-150 -366l-399 -32l306 -254l-96 -392l339 215l340 -215l-97 392z" />
    <glyph glyph-name="uni2B55" unicode="&#x2b55;" 
d="M1299 1677q251 0 471 -126t348.5 -346t128.5 -475q0 -257 -129.5 -477t-348.5 -345t-470 -125q-252 0 -472 126.5t-347.5 346.5t-127.5 474q0 252 127 472.5t347.5 347.5t472.5 127zM1299 -60q211 0 393 105t289.5 289t107.5 396t-106.5 395t-289 288.5t-394.5 105.5
q-213 0 -395.5 -105.5t-289 -288t-106.5 -395.5t107.5 -397t289.5 -288.5t394 -104.5z" />
    <glyph glyph-name="uni3030" unicode="&#x3030;" 
d="M2377 607q-178 -125 -330 -125q-87 0 -161 40l-77 46q-162 101 -279 101q-147 0 -281 -77q-72 -42 -123 -60t-105 -18q-49 0 -103 20t-123 60q-138 79 -236 79q-54 0 -109 -19t-123 -64l-104 222q165 165 350 165q76 0 137 -25t114.5 -55.5t101.5 -55.5t97 -25
q44 0 89.5 17t129.5 64q145 80 288 80q115 0 301 -116q135 -84 222 -84q97 0 232 89z" />
    <glyph glyph-name="uni303D" unicode="&#x303d;" 
d="M2184 77q0 -7 -7 -14l-270 -278q-6 -6 -14 -6l-13 4q-247 222 -388.5 527t-170.5 676l-177 -207q-48 -54 -119 -54q-56 0 -98.5 34t-55.5 88l-82 347l-172 -165l-6 -4l-7 -2q-10 0 -16 7l-169 219l-4 13q0 7 6 13l334 314q66 62 134 62q104 0 137 -132l80 -303l244 268
q74 83 147 83q65 0 102.5 -46t37.5 -132v-92q0 -214 37.5 -380t102 -302.5t162.5 -268.5t237 -256q8 -4 8 -13z" />
    <glyph glyph-name="uni3297" unicode="&#x3297;" 
d="M1299 1804q287 0 536 -144t393 -392.5t144 -536.5q0 -287 -144 -536t-392.5 -393t-536.5 -144q-289 0 -539.5 146.5t-391.5 395t-141 531.5q0 284 141.5 532.5t392 394.5t538.5 146zM1299 -264q269 0 499.5 134.5t362.5 364.5t132 496q0 268 -134 498t-364 362.5
t-496 132.5q-262 0 -490.5 -130t-365.5 -360.5t-137 -502.5q0 -269 135 -499.5t363.5 -363t494.5 -132.5zM1945 276q11 0 18.5 -7t7.5 -18v-157q0 -20 -18.5 -24.5t-60.5 -4.5q-89 0 -155 40t-93 112t-43 192t-19 260h-46q-5 -177 -56.5 -342.5t-131.5 -272.5q-7 -9 -19 -9
l-11 2l-147 77q-13 7 -13 22q0 9 7 15q1 2 24.5 36t51.5 98t52.5 157.5t29.5 216.5h-86q-24 0 -24 25v614q0 10 6.5 17t17.5 7h662q11 0 18 -7t7 -17v-614q0 -11 -7 -18t-18 -7h-104q1 -79 19 -239q10 -101 32.5 -128t75.5 -27zM1697 871q10 0 10 8v242q0 10 -10 10h-258
q-10 0 -10 -10v-242q0 -8 10 -8h258zM1234 641q0 -12 -6 -18l-106 -106q-6 -8 -16 -8q-12 0 -18 8l-69 69v-488q0 -11 -7 -18t-17 -7h-195q-9 0 -17 7t-8 18v529l-102 -100q-6 -6 -18 -6q-10 0 -17 7l-120 126q-7 7 -7 14q0 15 7 22l308 293h-226q-9 0 -16 7t-7 18v175
q0 9 7 17t16 8h175v159q0 10 8 17t17 7h195q10 0 17 -7t7 -17v-159h121q11 0 18.5 -8t7.5 -17v-175q0 -12 -8 -18l-132 -125l203 -208q5 -5 5 -16z" />
    <glyph glyph-name="uni3299" unicode="&#x3299;" 
d="M1299 1804q287 0 536 -144t393 -392.5t144 -536.5q0 -287 -144 -536t-392.5 -393t-536.5 -144q-289 0 -539.5 146.5t-391.5 395t-141 531.5q0 284 141.5 532.5t392 394.5t538.5 146zM1299 -264q269 0 499.5 134.5t362.5 364.5t132 496q0 268 -134 498t-364 362.5
t-496 132.5q-262 0 -490.5 -130t-365.5 -360.5t-137 -502.5q0 -269 135 -499.5t363.5 -363t494.5 -132.5zM1241 473q0 -17 -12 -23l-101 -51l-11 -1q-16 0 -22 14l-33 72v-394q0 -11 -7 -18t-18 -7h-160q-11 0 -18 7t-7 18v375l-96 -196q-5 -13 -23 -13l-10 2l-135 66
q-14 7 -14 22l3 11l225 459h-154q-11 0 -18 7t-7 18v145q0 11 7 18.5t18 7.5h204v72l-127 -39l-8 -2q-17 0 -24 17l-48 155l-1 6q0 17 18 24l466 146l8 2q14 0 23 -18l48 -154l1 -8q0 -19 -17 -22l-129 -41v-138h142q11 0 18 -7.5t7 -18.5v-145q0 -11 -7 -18t-18 -7h-118
l154 -333zM1995 325l-5 -21q-11 -45 -45.5 -94t-87 -76.5t-140.5 -27.5q-71 0 -126.5 29.5t-88.5 87.5q-46 -49 -94 -87.5t-61 -45.5l-13 -3q-9 0 -19 8l-109 124q-6 6 -6 16q0 13 13 22q123 79 224 223q-34 207 -63 557q0 22 22 26l162 13q25 0 27 -22l21 -182
q26 126 45 282q0 10 8.5 16t16.5 6l6 -1l157 -44q17 -6 17 -26q-10 -118 -38.5 -249.5t-63.5 -227.5t-95 -197q8 -59 26.5 -87t65.5 -28q32 0 49.5 22.5t28.5 67.5q5 19 25 19q8 0 13 -4l117 -78q11 -6 11 -18zM1318 1257l4 14l60 111q7 13 22 13l11 -2l209 -114
q13 -7 13 -23q0 -8 -3 -11l-60 -111q-7 -14 -22 -14l-12 3l-208 114q-14 11 -14 20zM2029 512v-6q0 -6 -5 -13t-14 -9l-126 -22q-24 0 -28 21l-39 234q0 25 20 29l125 21q25 0 29 -21zM1215 768q0 11 7 18t18 7h127q10 0 17 -7t7 -18v-190q0 -11 -7 -18t-17 -7h-127
q-11 0 -18 7t-7 18v190z" />
    <glyph glyph-name="uniE023" unicode="&#xe023;" 
d="M2222 1779q46 0 79 -33t33 -79v-1845q0 -45 -33 -78t-79 -33h-1845q-45 0 -78 33t-33 78v1845q0 46 33 79t78 33h1845zM563 15q0 -7 7 -7h1459q8 0 8 7v1459q0 7 -8 7h-1459q-7 0 -7 -7v-1459zM1885 1097q18 0 18 -18v-198q0 -18 -18 -18h-195l-31 -218h144q7 0 12.5 -5
t5.5 -13v-198q0 -17 -18 -17h-177l-36 -245q-2 -14 -15 -14h-248q-15 0 -15 18l35 241h-200l-35 -245q-2 -14 -16 -14h-247q-5 0 -10.5 4.5t-5.5 13.5l34 241h-153q-17 0 -17 17v198q0 18 17 18h186l31 218h-135q-17 0 -17 18v198q0 18 17 18h168l30 214q6 14 17 14h247
q5 0 10 -4.5t5 -11.5v-4l-29 -208h200l30 214q3 14 16 14h247q5 0 10 -4.5t5 -11.5v-4l-29 -208h162zM2232 1699l-10 1h-1845q-14 0 -23.5 -9.5t-9.5 -23.5v-1845q0 -13 9 -24l154 155q-25 30 -25 62v1459q0 36 25.5 62t62.5 26h1459q29 0 51 -17zM1211 863l-32 -218h200
l32 218h-200z" />
    <glyph glyph-name="uniE030" unicode="&#xe030;" 
d="M2222 1781q46 0 79 -33t33 -78v-1845q0 -46 -33 -79t-79 -33h-1845q-45 0 -78 33t-33 79v1845q0 45 33 78t78 33h1845zM563 18q0 -2 2.5 -5t4.5 -3h1459q8 0 8 8v1459q0 7 -8 7h-1459q-7 0 -7 -7v-1459zM2232 1701l-10 2h-1845q-14 0 -23.5 -9.5t-9.5 -23.5v-1845
q0 -14 9 -23l154 156q-25 25 -25 60v1459q0 36 25.5 62t62.5 26h1459q28 0 51 -17zM1286 1406q159 0 280.5 -78.5t186.5 -223.5t65 -336q0 -190 -65 -335t-186.5 -224t-280.5 -79q-158 0 -279 78.5t-186 224t-65 335.5q0 191 64.5 336t185 223.5t280.5 78.5zM1286 432
q97 0 153.5 92.5t56.5 243.5t-56.5 244t-153.5 93t-152.5 -93t-55.5 -244t56 -243.5t152 -92.5z" />
    <glyph glyph-name="uniE031" unicode="&#xe031;" 
d="M2222 1780q48 0 80 -33t32 -78v-1845q0 -45 -32 -78t-80 -33h-1845q-47 0 -79 33t-32 78v1845q0 45 32 78t79 33h1845zM563 17q0 -7 7 -7h1459q8 0 8 7v1459q0 7 -8 7h-1459q-7 0 -7 -7v-1459zM2232 1701l-10 1h-1845q-14 0 -23.5 -9.5t-9.5 -23.5v-1845q0 -13 9 -22
l154 155q-25 25 -25 60v1459q0 37 26 62.5t62 25.5h1459q29 0 51 -17zM1542 401q8 0 13 -5.5t5 -12.5v-229q0 -18 -18 -18h-484q-18 0 -18 18v229q0 7 5 12.5t13 5.5h93v667l-121 -36l-4 -1q-19 0 -19 19v240q0 12 14 18l406 86q21 0 21 -17v-976h94z" />
    <glyph glyph-name="uniE032" unicode="&#xe032;" 
d="M2222 1781q48 0 80 -33t32 -78v-1845q0 -45 -32 -78t-80 -33h-1845q-47 0 -79 33t-32 78v1845q0 45 32 78t79 33h1845zM563 18q0 -7 7 -7h1459q8 0 8 7v1459q0 7 -8 7h-1459q-7 0 -7 -7v-1459zM2232 1702l-10 1h-1845q-14 0 -23.5 -9.5t-9.5 -23.5v-1845q0 -14 9 -23
l154 154q-25 30 -25 62v1459q0 36 25.5 62t62.5 26h1459q29 0 51 -17zM1704 455q18 0 18 -18v-226q0 -7 -5 -13t-13 -6h-767q-8 0 -13 6t-5 13v236q0 9 10 16q187 110 316.5 236.5t129.5 225.5q0 57 -41.5 97t-96.5 40q-106 0 -251 -125l-15 -4q-9 3 -12 8l-111 181l-3 8
q0 15 69.5 72.5t131.5 92t128 55t134 20.5q149 0 274 -108t125 -266q0 -68 -23.5 -132.5t-65 -116t-144.5 -140t-210 -152.5h440z" />
    <glyph glyph-name="uniE033" unicode="&#xe033;" 
d="M2222 1781q48 0 80 -33t32 -78v-1845q0 -45 -32 -78t-80 -33h-1845q-47 0 -79 33t-32 78v1845q0 45 32 78t79 33h1845zM563 18q0 -7 7 -7h1459q8 0 8 7v1459q0 8 -8 8h-1459q-7 0 -7 -8v-1459zM2232 1702l-10 1h-1845q-14 0 -23.5 -9.5t-9.5 -23.5v-1845q0 -12 9 -23
l154 156q-25 25 -25 60v1459q0 35 25.5 62t62.5 27h1459q28 0 51 -18zM1551 771q90 -50 136.5 -125t46.5 -166q0 -105 -58 -189t-161 -132t-225 -48q-70 0 -141 20.5t-138.5 58t-125.5 88t-58 67.5q0 9 3 11l114 166q5 7 12 7q9 0 14 -4q64 -55 143 -90.5t139 -35.5
q59 0 101.5 41t42.5 94q0 46 -47 85t-133 63q-13 3 -13 17v145q0 13 13 17q87 28 139 72t52 93q0 51 -37.5 90.5t-91.5 39.5q-93 0 -230 -102l-14 -4l-12 6l-114 166q-3 3 -3 10q0 8 3 11q29 40 94 79t148.5 63.5t161.5 24.5q103 0 196 -49t150 -133t57 -173
q0 -78 -42.5 -151t-121.5 -133z" />
    <glyph glyph-name="uniE034" unicode="&#xe034;" 
d="M2222 1781q46 0 79 -33t33 -79v-1845q0 -45 -33 -78t-79 -33h-1845q-45 0 -78 33t-33 78v1845q0 46 33 79t78 33h1845zM570 10h1459q8 0 8 7v1459q0 8 -8 8h-1459q-7 0 -7 -8v-1459q2 -7 7 -7zM2232 1701l-10 2h-1845q-14 0 -23.5 -10t-9.5 -24v-1845q0 -13 9 -24
l154 157q-25 25 -25 60v1459q0 35 25.5 62t62.5 27h1459q28 0 51 -18zM1790 584q8 0 13 -5t5 -11v-214q0 -18 -18 -18h-208v-214q0 -16 -18 -16h-264q-16 0 -16 16v214h-488q-18 0 -18 18v214l3 8l505 779v1q0 2 4 4.5t10 2.5h264q10 0 16 -9l2 -8v-762h208zM1093 584h191
v293z" />
    <glyph glyph-name="uniE035" unicode="&#xe035;" 
d="M2222 1780q48 0 80 -33t32 -78v-1845q0 -45 -32 -78t-80 -33h-1845q-47 0 -79 33t-32 78v1845q0 45 32 78t79 33h1845zM563 17q0 -7 7 -7h1459q8 0 8 7v1459q0 8 -8 8h-1459q-7 0 -7 -8v-1459zM1230 939q142 -3 255.5 -55.5t176.5 -146.5t63 -219q0 -109 -60 -197.5
t-172.5 -145.5t-228.5 -57q-81 0 -160 21.5t-148.5 51.5t-106.5 55q-7 5 -7 16l68 213q3 11 15 11l9 -3q45 -29 127.5 -51.5t159.5 -22.5q93 0 139.5 35t46.5 96q0 63 -76 96t-219 33q-40 0 -102.5 -4.5t-88.5 -10.5q-21 0 -21 19l62 698q3 16 17 16h691q7 0 12.5 -5
t5.5 -13v-218q0 -6 -5.5 -11t-12.5 -5h-422zM2232 1701l-10 1h-1845q-14 0 -23.5 -9.5t-9.5 -23.5v-1845q0 -12 9 -23l154 154q-25 30 -25 62v1459q0 36 25.5 62t62.5 26h1459q29 0 51 -17z" />
    <glyph glyph-name="uniE036" unicode="&#xe036;" 
d="M2222 1781q46 0 79 -33t33 -78v-1845q0 -46 -33 -79t-79 -33h-1845q-45 0 -78 33t-33 79v1845q0 45 33 78t78 33h1845zM563 18q0 -7 7 -7h1459q8 0 8 7v1459q0 7 -8 7h-1459q-7 0 -7 -7v-1459zM2232 1701l-10 2h-1845q-14 0 -23.5 -9.5t-9.5 -23.5v-1845q0 -12 9 -23
l154 156q-25 25 -25 60v1459q0 36 25.5 62t62.5 26h1459q29 0 51 -17zM1278 951q138 0 250.5 -55t175 -153t62.5 -219t-63.5 -220.5t-175.5 -154t-249 -54.5q-233 0 -364.5 136.5t-131.5 381.5q0 115 30 227.5t100 236.5q53 93 114.5 160t115 111t90 65.5t39.5 23.5l7 2
q8 0 14 -6l163 -165l4 -11q0 -12 -7 -15l-28 -21q-59 -42 -131 -119.5t-119 -158.5q50 8 104 8zM1470 524q0 78 -54 129.5t-138 51.5q-83 0 -137.5 -51t-54.5 -130q0 -76 53.5 -128.5t138.5 -52.5t138.5 52.5t53.5 128.5z" />
    <glyph glyph-name="uniE037" unicode="&#xe037;" 
d="M2222 1782q46 0 79 -33t33 -78v-1845q0 -46 -33 -79t-79 -33h-1845q-45 0 -78 33t-33 79v1845q0 45 33 78t78 33h1845zM563 19q0 -7 7 -7h1459q8 0 8 7v1459q0 7 -8 7h-1459q-7 0 -7 -7v-1459zM1784 1322l-459 -1201q-5 -11 -15 -11h-306q-16 0 -16 16l1 7l369 970h-551
q-17 0 -17 16v210q0 16 17 16h960q10 0 14 -7q3 -3 3 -16zM2232 1702l-10 2h-1845q-14 0 -23.5 -9.5t-9.5 -23.5v-1845q0 -12 9 -23l154 156q-25 25 -25 60v1459q0 36 25.5 62t62.5 26h1459q29 0 51 -17z" />
    <glyph glyph-name="uniE038" unicode="&#xe038;" 
d="M2222 1780q48 0 80 -33t32 -78v-1845q0 -45 -32 -78t-80 -33h-1845q-47 0 -79 33t-32 78v1845q0 45 32 78t79 33h1845zM563 17q0 -7 7 -7h1459q8 0 8 7v1459q0 7 -8 7h-1459q-7 0 -7 -7v-1459zM2232 1701l-10 1h-1845q-14 0 -23.5 -9.5t-9.5 -23.5v-1845q0 -13 9 -22
l154 155q-25 25 -25 60v1459q0 37 26 62.5t62 25.5h1459q29 0 51 -17zM1593 806q151 -115 151 -305q0 -113 -59.5 -206.5t-164.5 -145t-235 -51.5t-235.5 51.5t-165 144.5t-59.5 207q0 189 152 305q-106 100 -106 249q0 158 116.5 260t297.5 102q180 0 297 -102t117 -260
q0 -147 -106 -249zM1273 902q77 0 125.5 42t48.5 111q0 67 -46.5 110t-115.5 43q-70 0 -116.5 -43t-46.5 -110q0 -63 43.5 -108t107.5 -45zM1285 670q-80 0 -130.5 -48t-50.5 -121q0 -74 50.5 -123t130.5 -49q79 0 129 49.5t50 122.5t-50 121t-129 48z" />
    <glyph glyph-name="uniE039" unicode="&#xe039;" 
d="M2222 1781q46 0 79 -33t33 -79v-1845q0 -45 -33 -78t-79 -33h-1845q-45 0 -78 33t-33 78v1845q0 46 33 79t78 33h1845zM563 17q0 -7 7 -7h1459q8 0 8 7v1459q0 7 -8 7h-1459q-7 0 -7 -7v-1459zM1784 958q0 -119 -20 -213t-53 -170t-104 -175t-147 -164.5t-147 -109.5
t-118 -60l-6 -1q-10 0 -14 7l-142 185q-4 3 -4 9q0 13 9 15q1 1 33 18t79 51.5t103 86t105 120.5l-62 -3q-138 0 -250.5 55t-175 153t-62.5 219t63 220t176 153.5t249 54.5q215 0 351.5 -126t136.5 -325zM2232 1701l-10 1h-1845q-14 0 -23.5 -9.5t-9.5 -23.5v-1845
q0 -13 9 -22l154 155q-25 25 -25 60v1459q0 37 26 62.5t62 25.5h1459q29 0 51 -16zM1488 981q0 78 -54 129.5t-138 51.5q-83 0 -137.5 -51t-54.5 -130q0 -78 54 -129.5t138 -51.5q83 0 137.5 51t54.5 130z" />
    <glyph glyph-name="uniFEFF" unicode="&#xfeff;" 
 />
    <glyph glyph-name="uniFFFC" unicode="&#xfffc;" 
d="M-2 1538v417h415v-152h-263v-265h-152zM2186 1803v152h417v-417h-150v265h-267zM-2 -650v415h152v-265h263v-150h-415zM2186 -650v150h267v265h150v-415h-417zM1651 -650v150h374v-150h-374zM579 -650v150h370v-150h-370zM579 1803v152h370v-152h-370zM2603 -72h-150v370
h150v-370zM2603 1003h-150v371h150v-371zM1115 -650v150h373v-150h-373zM150 -72h-152v370h152v-370zM1115 1803v152h373v-152h-373zM1651 1803v152h374v-152h-374zM150 464h-152v373h152v-373zM150 1003h-152v371h152v-371zM2603 464h-150v373h150v-373zM708 324
q-174 0 -266.5 109t-92.5 304q0 198 92.5 304.5t266.5 107.5q174 0 266.5 -107t92.5 -305q0 -195 -92.5 -304t-266.5 -109zM708 467q99 0 142 70.5t43 199.5t-43 198.5t-142 69.5q-185 0 -185 -268q0 -270 185 -270zM1182 1138h236q149 0 225.5 -46t76.5 -159
q0 -67 -30.5 -114t-92.5 -58v-5q77 -15 112 -61.5t35 -126.5q0 -111 -75 -172t-203 -61h-284v803zM1351 820h90q63 0 87.5 23.5t24.5 67.5q0 46 -28 66t-94 20h-80v-177zM1351 686v-211h101q67 0 92.5 29.5t25.5 80.5q0 101 -124 101h-95zM1816 341v140q48 -11 93 -11
q51 0 84.5 24.5t33.5 92.5v551h172v-545q0 -129 -71.5 -197.5t-201.5 -68.5q-84 0 -110 14z" />
    <glyph glyph-name="uniFFFD" unicode="&#xfffd;" 
d="M1299 1919l1287 -1285l-1287 -1284l-1285 1284zM1388 290v64q0 61 22.5 103.5t126.5 121.5q136 104 188.5 194t52.5 212q0 186 -128.5 290.5t-353.5 104.5q-113 0 -240.5 -39t-219.5 -95l112 -244q93 47 179.5 78.5t162.5 31.5q87 0 129.5 -40t42.5 -104
q0 -67 -27 -113.5t-139 -135.5q-95 -73 -145.5 -156t-50.5 -192v-81h288zM1063 -87q0 -85 48.5 -135t144.5 -50q93 0 142 50t49 135q0 88 -49 138t-142 50q-96 0 -144.5 -50t-48.5 -138z" />
    <glyph glyph-name="u1F004" unicode="&#x1f004;" 
d="M2255 1287v-436q0 -114 -7.5 -147t-35.5 -69l-678 -910q-32 -45 -92.5 -74.5t-122.5 -29.5q-59 0 -108 25l-752 356q-53 25 -83.5 70t-30.5 102v539q0 63 41 116l681 910q36 48 94.5 76t122.5 28q58 0 106 -23l753 -358q51 -23 81.5 -68.5t30.5 -106.5zM463 710
q0 -47 47 -68l752 -358q22 -11 57 -11q36 0 68.5 15t52.5 41l681 910q19 26 19 53q0 40 -48 63l-751 358q-27 12 -57 12q-38 0 -70 -15t-51 -41l-682 -910q-18 -23 -18 -49zM2138 1064l-604 -806q-36 -48 -90.5 -76t-120.5 -28q-64 0 -112 25l-748 354v-226q0 -44 47 -65
l752 -358q24 -12 57 -12q36 0 68.5 15t52.5 41l678 909q19 24 19 54zM875 1044l3 9l234 316q4 6 11 6l7 -2l243 -116l164 215q4 5 11 5l7 -1l149 -71q7 -7 7 -14l-3 -8l-160 -210l234 -112q7 -7 7 -13l-3 -8l-233 -318q-3 -5 -12 -5l-5 1l-246 118l-187 -245q-6 -6 -11 -6
l-6 2l-149 71q-10 7 -10 14q0 4 4 8l184 240l-231 111q-9 3 -9 13zM1477 898l5 4l78 104l2 5q0 5 -4 7l-94 44l-89 -116zM1199 1031l89 116l-99 47l-7 -4l-77 -103l-2 -7q0 -6 7 -7z" />
    <glyph glyph-name="u1F0CF" unicode="&#x1f0cf;" 
d="M1986 1874q67 0 117 -48.5t50 -118.5v-1945q0 -70 -49.5 -118t-117.5 -48h-1372q-68 0 -117.5 48t-49.5 118v1945q0 70 50 118.5t117 48.5h1372zM2038 1707q0 21 -15.5 36.5t-36.5 15.5h-1372q-21 0 -36.5 -15.5t-15.5 -36.5v-1945q0 -20 15.5 -35.5t36.5 -15.5h1372
q21 0 36.5 15.5t15.5 35.5v1945zM1706 195q26 0 44.5 -19t18.5 -46t-18.5 -46t-44.5 -19q-27 0 -46.5 19t-19.5 46q0 13 7 29q-104 39 -148 136q-29 63 -71 100q-26 -71 -26 -169q0 -50 -24.5 -101t-70.5 -89q14 -17 14 -38q0 -26 -19.5 -45.5t-45.5 -19.5q-27 0 -46.5 19.5
t-19.5 45.5t19 44.5t45 19.5q0 28 -7 51.5t-38 91.5q-36 78 -36 154v13l1 12q-49 -34 -83 -109q-44 -97 -148 -136q4 -8 4 -21q0 -27 -19 -46t-46 -19q-26 0 -45 19t-19 46t19 46t45 19q12 0 24 -5q27 33 34 103q9 81 21 113.5t27 55.5l-35 -24q-33 -26 -62.5 -36.5
t-68.5 -10.5q-30 0 -59 8q-20 -29 -55 -29q-27 0 -46 19t-19 46t19 46t46 19q26 0 44.5 -17.5t20.5 -43.5q19 8 33.5 26t44.5 65q19 30 47 52t77 36q-17 47 -20 83.5t-3 71.5q0 102 31.5 200t80.5 193q14 28 14 57q0 35 -18.5 57t-53.5 22q-29 0 -57.5 -21t-47.5 -46
q25 -23 25 -58q0 -32 -22.5 -54.5t-54.5 -22.5q-33 0 -56 22.5t-23 54.5t22.5 55t54.5 24q45 246 238 246q55 0 104.5 -29t84.5 -83q41 99 119 153t189 54q35 0 65 -5q23 41 68 41q32 0 55 -23t23 -56q0 -32 -23 -55.5t-55 -23.5q-24 0 -43.5 13.5t-28.5 34.5
q-129 -58 -146 -253q55 22 121 22q98 0 168.5 -63.5t70.5 -158.5q0 -63 -26 -131q31 -24 31 -62q0 -32 -23 -55.5t-56 -23.5q-32 0 -54.5 23.5t-22.5 55.5q0 30 19.5 52t49.5 25l1 18q0 43 -30.5 75t-60.5 32q-31 0 -50.5 -37.5t-19.5 -102.5q0 -21 10 -83q9 -62 9 -88
q0 -70 -19 -125q46 -3 86 -33l31 -25q34 -31 56.5 -44t49.5 -17q4 23 21.5 39t42.5 16q26 0 45.5 -19.5t19.5 -46.5q0 -26 -19.5 -45.5t-45.5 -19.5t-45 19q-48 -32 -90 -32q-37 0 -89 27q-59 31 -88 37q46 -65 54 -130q9 -87 17 -115t27 -49zM1171 990q-38 0 -68 -33
t-47.5 -87t-17.5 -105q0 -98 29 -160t91.5 -100.5t131.5 -38.5q79 0 142.5 48t89.5 110t26 134q0 95 -36.5 156.5t-86.5 61.5q-78 0 -135 -96q-15 45 -48.5 77.5t-70.5 32.5zM1124 805q0 31 18.5 49t45.5 18q36 0 60 -32t24 -75q0 -30 -13 -57q-8 -16 -8 -30q0 -18 20 -18
q16 0 27 8t25 8q5 0 5 -6q0 -17 -20 -31.5t-44 -20.5l-12 -6q0 -4 14.5 -8.5t28.5 -4.5q54 0 109 46q14 11 22 11q14 0 14 -19q0 -29 -21 -52t-55.5 -38t-62.5 -15q-54 0 -104 35.5t-50 78.5q0 12 6 12t11 -6.5t11 -6.5q5 0 8.5 8.5t15.5 31t15.5 34.5t3.5 17q0 9 -7 9
l-29 2q-23 2 -40.5 16t-17.5 42zM1331 799q0 28 23.5 50t55.5 22q36 0 36 -44q0 -32 -20.5 -51.5t-46.5 -19.5q-22 0 -35 12t-13 31zM687 1460q-23 0 -37 14.5t-14 35.5q0 20 14 34.5t37 14.5t36.5 -14.5t13.5 -34.5q0 -21 -13.5 -35.5t-36.5 -14.5zM647 1233l3 2h40
q14 0 23.5 -9t9.5 -23q0 -22 -20 -30l23 -30v-2l-2 -1h-18l-4 1l-23 29h-8v-28l-2 -2h-19l-3 2v91zM670 1449l2 -2v-35l24 36l4 1h20l2 -1v-2l-27 -40l31 -49q0 -3 -4 -3h-18q-4 0 -5 3l-27 43v-44l-2 -2h-20l-2 2v91l2 2h20zM677 1323v-18h32l2 -2v-15l-2 -2h-32v-20h42
l2 -2v-16l-2 -2h-64l-2 2v93l2 2h64l2 -2v-16l-2 -2h-42zM686 1570q-15 0 -25.5 7.5t-12.5 19.5l5 3l15 5l3 -2q7 -10 14 -10q10 0 12 6.5t2 18.5v47l2 2h22l3 -2v-49q0 -46 -40 -46zM687 1535q-26 0 -26 -25q0 -11 7 -18.5t19 -7.5t19 7.5t7 18.5q0 25 -26 25zM671 1189h17
q13 0 13 14q0 13 -13 13h-17v-27zM1927 11q23 0 37 -14.5t14 -35.5q0 -20 -14 -34.5t-37 -14.5t-36.5 14.5t-13.5 34.5q0 21 13.5 35.5t36.5 14.5zM1967 238l-3 -2h-40q-14 0 -23.5 9t-9.5 23q0 22 20 30l-23 30v2l2 1h18l4 -1l23 -29h8v28l2 2h19l3 -2v-91zM1944 22l-2 2
v35l-24 -36l-4 -1h-20l-2 1v2l27 40l-31 49q0 3 4 3h18l5 -3l27 -43v44l2 2h20l2 -2v-91l-2 -2h-20zM1937 148v18h-32l-2 2v15l2 2h32v20h-42l-2 2v16l2 2h64l2 -2v-93l-2 -2h-64l-2 2v16l2 2h42zM1928 -99q15 0 25.5 -7.5t12.5 -19.5l-5 -3l-15 -5l-3 2q-7 10 -14 10
q-10 0 -12 -6.5t-2 -18.5v-47l-2 -2h-22l-3 2v49q0 46 40 46zM1927 -64q26 0 26 25q0 11 -7 18.5t-19 7.5t-19 -7.5t-7 -18.5q0 -25 26 -25zM1943 282h-17q-13 0 -13 -14q0 -13 13 -13h17v27z" />
    <glyph glyph-name="u1F170" unicode="&#x1f170;" 
d="M1299 983l145 -434h-289zM2222 1769q46 0 79 -33t33 -79v-1845q0 -45 -33 -78t-79 -33h-1845q-45 0 -78 33t-33 78v1845q0 46 33 79t78 33h1845zM2026 -39q13 0 23 8.5t10 22.5l-3 13l-553 1474q-9 22 -32 22h-345q-24 0 -30 -22l-555 -1474l-3 -11q0 -14 10.5 -23.5
t24.5 -9.5h363q10 0 19 6.5t12 15.5l85 253h496l84 -253q7 -22 31 -22h363z" />
    <glyph glyph-name="u1F171" unicode="&#x1f171;" 
d="M2222 1769q48 0 80 -33t32 -78v-1845q0 -45 -32 -78t-80 -33h-1845q-47 0 -79 33t-32 78v1845q0 45 32 78t79 33h1845zM1422 -42q132 0 247 60t180.5 162.5t65.5 221.5q0 109 -54.5 203t-150.5 157q63 60 99 138.5t36 167.5q0 119 -66.5 222.5t-181 163t-245.5 59.5h-559
q-14 0 -23.5 -9.5t-9.5 -23.5v-1489q0 -14 9.5 -23.5t23.5 -9.5h629zM1341 609q67 0 117 -54t50 -128q0 -76 -50 -129.5t-117 -53.5h-218q-7 0 -7 9v348q0 8 7 8h218zM1122 901q-7 0 -7 6v300q0 9 7 9h207q62 0 105.5 -47t43.5 -111q0 -63 -43 -110t-106 -47h-207z" />
    <glyph glyph-name="u1F17E" unicode="&#x1f17e;" 
d="M1299 1131q118 0 211.5 -50.5t144.5 -141t51 -203.5q0 -174 -114 -284.5t-293 -110.5q-181 0 -293.5 111.5t-112.5 283.5q0 174 113 284.5t293 110.5zM2222 1770q46 0 79 -33t33 -79v-1845q0 -45 -33 -78t-79 -33h-1845q-45 0 -78 33t-33 78v1845q0 46 33 79t78 33h1845z
M1299 -76q238 0 430.5 104.5t299.5 292t107 415.5q0 231 -108 418t-300 290.5t-429 103.5q-236 0 -428 -103.5t-300 -290.5t-108 -418q0 -228 107.5 -415.5t300 -292t428.5 -104.5z" />
    <glyph glyph-name="u1F17F" unicode="&#x1f17f;" 
d="M2222 1770q45 0 78 -32t33 -80v-1845q0 -47 -33 -79t-78 -32h-1845q-45 0 -78 32t-33 79v1845q0 48 33 80t78 32h1845zM1954 988q0 139 -71.5 261t-194.5 192t-265 70h-660q-14 0 -23.5 -9.5t-9.5 -22.5v-1490q0 -13 9.5 -23t23.5 -10h322q14 0 24 10t10 23v474h304
q141 0 263.5 69.5t195 191.5t72.5 264zM1382 1205q85 0 147 -64t62 -153t-61 -152.5t-148 -63.5h-257q-2 0 -6 2.5t-4 5.5v416q0 2 4 5.5t6 3.5h257z" />
    <glyph glyph-name="u1F18E" unicode="&#x1f18e;" 
d="M2222 1770q47 0 79 -32t32 -79v-1845q0 -47 -32 -79t-79 -32h-1845q-47 0 -79 32t-32 79v1845q0 47 32 79t79 32h1845zM2141 404q0 112 -35.5 205.5t-94.5 152.5q88 126 88 308q0 117 -40.5 219t-110 160t-149.5 58h-333q-11 0 -18 -7.5t-7 -18.5v-1489q0 -11 7 -18.5
t18 -7.5h375q80 0 150 59.5t110 160.5t40 218zM992 1500h-204q-21 0 -26 -20l-329 -1476l-1 -5q0 -25 26 -25h216q20 0 25 21l50 254h283l49 -254q4 -21 25 -21h217q8 0 16 6t8 19v5l-329 1476q-2 8 -9.5 14t-16.5 6zM1793 608q41 0 70.5 -50.5t29.5 -129.5q0 -78 -29 -129
t-71 -51h-130q-5 0 -5 6v349q0 5 5 5h130zM1663 904q-7 0 -7 6v300q0 5 7 5h122q36 0 63.5 -44t27.5 -112q0 -65 -27 -110t-64 -45h-122zM891 962l82 -414h-165z" />
    <glyph glyph-name="u1F191" unicode="&#x1f191;" 
d="M2222 1770q45 0 78 -32t33 -80v-1845q0 -47 -33 -79t-78 -32h-1845q-45 0 -78 33t-33 78v1845q0 46 33 79t78 33h1845zM2255 1658q0 14 -9.5 23.5t-23.5 9.5h-1845q-14 0 -23.5 -9.5t-9.5 -23.5v-1845q0 -14 9.5 -23t23.5 -9h1845q14 0 23.5 9t9.5 23v1845zM1336 161v-5
l-3 -8q-142 -198 -347 -198q-146 0 -262.5 101.5t-180 284t-63.5 410.5q0 229 64 411t180.5 282.5t261.5 100.5q207 0 335 -166l4 -8l-2 -4l-112 -334q-5 -10 -15 -10q-6 0 -10 6q-37 48 -90 75t-110 27q-101 0 -168 -106.5t-67 -273.5q0 -168 66.5 -275.5t168.5 -107.5
q56 0 119 37t105 91q5 5 13 5q9 0 11 -9zM2077 274q11 0 18.5 -7t7.5 -17v-246q0 -10 -7.5 -18t-18.5 -8h-627q-11 0 -19 8t-8 18v1481q0 11 8 18.5t19 7.5h197q10 0 18 -7.5t8 -18.5v-1211h404z" />
    <glyph glyph-name="u1F192" unicode="&#x1f192;" 
d="M2222 1770q45 0 78 -32t33 -79v-1845q0 -48 -33 -80t-78 -32h-1845q-45 0 -78 33t-33 79v1845q0 45 33 78t78 33h1845zM2255 1659q0 14 -9.5 23.5t-23.5 9.5h-1845q-14 0 -23.5 -9.5t-9.5 -23.5v-1845q0 -14 9.5 -23.5t23.5 -9.5h1845q14 0 23.5 9.5t9.5 23.5v1845z
M1099 1435q88 0 144 -198.5t56 -500.5q0 -303 -56 -500t-144 -197t-144 196.5t-56 500.5q0 303 56 501t144 198zM1541 1435q57 0 102.5 -87t71.5 -249t26 -363q0 -197 -25.5 -360t-71.5 -250t-103 -87q-88 0 -143 198t-55 499q0 299 55 499t143 200zM841 522q6 -2 8 -8
l54 -288v-4q-76 -176 -188 -176q-78 0 -140 88t-96.5 249t-34.5 361q0 201 34.5 362.5t96.5 249t140 87.5q108 0 181 -147l-1 -12l-58 -288q-2 -8 -8 -8q-8 0 -10 6q-54 117 -102 117q-50 0 -82 -103t-32 -264q0 -158 32 -262.5t82 -104.5q23 0 56 42t59 98q1 5 9 5z
M2136 315q18 0 18 -16v-222q0 -18 -18 -18h-333q-18 0 -18 18v1336q0 16 18 16h105q17 0 17 -16v-1098h211zM1099 336q30 0 47 117.5t17 282.5q0 170 -17.5 285t-46.5 115q-28 0 -46.5 -112.5t-18.5 -287.5q0 -177 18.5 -288.5t46.5 -111.5zM1541 336q30 0 47.5 115.5
t17.5 284.5q0 170 -17.5 285t-47.5 115q-29 0 -46 -116t-17 -284q0 -170 17.5 -285t45.5 -115z" />
    <glyph glyph-name="u1F193" unicode="&#x1f193;" 
d="M2222 1770q45 0 78 -32t33 -80v-1845q0 -47 -33 -79t-78 -32h-1845q-45 0 -78 33t-33 78v1845q0 46 33 79t78 33h1845zM2255 1658q0 14 -9.5 23.5t-23.5 9.5h-1845q-14 0 -23.5 -9.5t-9.5 -23.5v-1845q0 -14 9.5 -23t23.5 -9h1845q14 0 23.5 9t9.5 23v1845zM1303 26v-4
q0 -20 -19 -20h-107q-17 0 -19 15l-124 468h-24v-464q0 -18 -19 -18h-107q-19 0 -19 18v1419q0 19 19 19h219q80 0 131.5 -142t51.5 -345q0 -155 -31.5 -278t-80.5 -174zM1715 1459q8 0 13.5 -5.5t5.5 -13.5v-235q0 -18 -19 -18h-215v-304h163q8 0 13.5 -5.5t5.5 -12.5v-236
q0 -19 -19 -19h-163v-336h215q19 0 19 -18v-235q0 -8 -5.5 -13.5t-13.5 -5.5h-342q-18 0 -18 19v1419q0 19 18 19h342zM2147 1459q7 0 12.5 -5.5t5.5 -13.5v-235q0 -8 -5.5 -13t-12.5 -5h-217v-304h165q8 0 13.5 -5.5t5.5 -12.5v-236q0 -19 -19 -19h-165v-336h217
q7 0 12.5 -5t5.5 -13v-235q0 -8 -5.5 -13.5t-12.5 -5.5h-341q-19 0 -19 19v1419q0 19 19 19h341zM793 1459q18 0 18 -19v-235q0 -18 -18 -18h-198v-319h164q8 0 13 -6t5 -14v-235q0 -18 -18 -18h-164v-574q0 -8 -6 -13.5t-14 -5.5h-106q-18 0 -18 19v1419q0 19 18 19h324z
M1089 769q31 0 51 59.5t20 143.5q0 85 -20 144.5t-51 59.5h-85q-5 0 -5 -6v-396q0 -5 5 -5h85z" />
    </font>
</defs>
</svg>
